<?xml version="1.0" encoding="utf-8"?>
<!-- Generator: Adobe Illustrator 16.0.4, SVG Export Plug-In . SVG Version: 6.00 Build 0)  -->
<!DOCTYPE svg PUBLIC "-//W3C//DTD SVG 1.1//EN" "http://www.w3.org/Graphics/SVG/1.1/DTD/svg11.dtd">
<svg version="1.1" id="Layer_1" xmlns="http://www.w3.org/2000/svg" xmlns:xlink="http://www.w3.org/1999/xlink" x="0px" y="0px"
	 width="512px" height="512px" viewBox="0 0 512 512" enable-background="new 0 0 512 512" xml:space="preserve">
<g>
	<path d="M-1233.259,452.581l-1.761-8.827l-202.644-202.645l5.165-5.166l-7.019-7.019l3.784-3.784l-12.391-12.391v0l-50.047-50.047
		l-2.091-2.091l-12.392-12.392l-2.349,1.426c-2.45,1.488-8.136,5.561-18.695,16.121c-9.635,9.635-13.425,14.747-14.907,17.338
		l-1.328,2.321l14.457,14.457l0,0l47.988,47.987l-0.001,0l14.513,14.512l3.788-3.788l7.019,7.02l4.847-4.847l201.857,201.857
		l0.801,0.802l8.982,1.442c-0.454,4.152,1.012,8.329,4.024,11.342c2.622,2.622,6.113,4.066,9.831,4.066
		c3.729,0,7.233-1.451,9.865-4.084c2.627-2.627,4.075-6.122,4.077-9.844c0.002-3.723-1.442-7.219-4.067-9.844
		C-1224.867,453.588-1228.99,452.141-1233.259,452.581z"/>
	<path d="M-1204.799,410.658l-108.932-263.122l-0.581-1.404l6.527-2.702l-3.79-9.152l4.948-2.049l-7.85-18.964h-0.001l-27.055-65.35
		l-0.002,0l-6.702-16.192l-2.715,0.417c-2.831,0.435-9.642,2.018-23.445,7.731c-12.588,5.211-18.047,8.483-20.409,10.311
		l-2.115,1.636l7.819,18.887l0.001-0.001l27.108,65.48l0.001,0l6.703,16.191l4.946-2.048l3.79,9.151l6.527-2.702l5.625,13.587
		c22.521,54.399,100.881,243.674,103.889,250.939c3.641,8.795,17.822,22.194,22.641,24.273l3.379,1.457l1.287-3.446
		C-1201.237,438.321-1201.86,417.751-1204.799,410.658z"/>
</g>
<g id="Layer_3">
	<g>
		<path d="M-832,16.068c-132.511,0-239.932,107.421-239.932,239.932S-964.511,495.932-832,495.932S-592.068,388.511-592.068,256
			S-699.489,16.068-832,16.068z M-919.523,431.048V80.952L-688.809,256L-919.523,431.048z"/>
	</g>
</g>
<g id="Layer_3_1_">
	<g>
		<path d="M-130.451,183.969h-315.105c-3.809,0-7.023,2.298-7.023,5.021v156.263c0,2.723,3.213,5.034,7.023,5.034h315.105
			c3.809,0,7.031-2.312,7.031-5.034V188.99C-123.42,186.268-126.643,183.969-130.451,183.969z"/>
		<path d="M-130.451,183.969h-315.105c-3.809,0-7.023,2.298-7.023,5.021v156.263c0,2.723,3.213,5.034,7.023,5.034h315.105
			c3.809,0,7.031-2.312,7.031-5.034V188.99C-123.42,186.268-126.643,183.969-130.451,183.969z"/>
		<path d="M-91.471,117.795h-131.324l-24.348-18.391c-2.828-2.129-8.025-3.866-11.568-3.866h-58.576
			c-3.545,0-8.754,1.736-11.568,3.866l-24.348,18.391h-131.326c-15.1,0-27.467,12.368-27.467,27.467v243.732
			c0,15.099,12.367,27.467,27.467,27.467h393.059c15.1,0,27.467-12.368,27.467-27.467V145.263
			C-64.004,130.164-76.371,117.795-91.471,117.795z M-88.574,383.854c0,5.088-4.131,9.232-9.213,9.232h-380.439
			c-5.076,0-9.199-4.145-9.199-9.232V150.402c0-5.102,4.123-9.247,9.199-9.247h380.439c5.082,0,9.211,4.145,9.211,9.247v233.452
			H-88.574z"/>
	</g>
</g>
<g id="Layer_3_3_">
	<g>
		<g>
			<path d="M-720.721,606.742l111.538-30.842l-29.309,112.059l-30.111-29.695l-172.908,172.105c3.739,1.088,7.673,2.28,11.607,3.591
				c25.879,8.21,58.466,18.564,108.26-29.65l-20.979-20.979l60.418-60.418l60.403,60.403l-60.418,60.417l-18.714-18.713
				c-62.385,60.744-104.477,47.351-137.865,36.756c-12.039-3.844-22.439-7.151-31.096-3.202l-90.439,89.963
				c11.055,19.31,8.299,44.207-8.21,60.715c-19.787,19.787-51.657,19.801-71.429,0.03c-19.801-19.801-19.785-51.671,0-71.458
				c15.406-15.406,38.083-18.804,56.768-10.281l56.201-55.903c-3.084-11.011-7.167-20.486-10.892-29.099
				c-16.509-38.292-27.683-64.306,35.744-128.479c-10.519-19.012-7.882-43.373,8.479-59.732c19.504-19.504,51.358-19.533,70.893,0
				c19.547,19.548,19.518,51.403,0.014,70.907c-15.957,15.957-39.558,18.878-58.376,9.238
				c-49.809,50.435-41.853,69.059-30.022,96.474c2.398,5.557,4.887,11.353,7.256,17.686l213.226-212.154L-720.721,606.742
				L-720.721,606.742z"/>
		</g>
	</g>
</g>
<g id="Layer_3_4_">
	<g>
		<g>
			<path d="M-238.266,610.094c-3.469-4.434-8.205-6.918-13.133-6.918h-73.203c-4.908,0-9.664,2.502-13.152,6.955
				c-3.486,4.454-5.42,10.442-5.42,16.696v50.178c0,6.254,1.914,12.336,5.42,16.771c3.488,4.396,8.227,6.88,13.152,6.88h73.203
				c4.91,0,9.646-2.521,13.152-6.918c3.467-4.453,5.438-10.479,5.438-16.733v-50.178
				C-232.828,620.573-234.742,614.491-238.266,610.094z"/>
		</g>
		<g>
			<path d="M-407.244,758.187c-3.486-4.396-8.186-6.917-13.15-6.917h-73.203c-4.906,0-9.645,2.52-13.15,6.917
				c-3.449,4.491-5.42,10.48-5.42,16.733v50.18c0,6.254,1.971,12.375,5.438,16.771c3.469,4.396,8.205,6.917,13.133,6.917h73.203
				c4.908-0.038,9.664-2.502,13.15-6.955c3.488-4.453,5.439-10.479,5.439-16.733v-50.18
				C-401.805,768.667-403.775,762.621-407.244,758.187z"/>
		</g>
		<g>
			<path d="M-407.244,610.094c-3.486-4.434-8.186-6.918-13.15-6.918h-73.203c-4.906,0-9.645,2.521-13.15,6.955
				c-3.449,4.454-5.42,10.442-5.42,16.696v50.178c0,6.254,1.951,12.336,5.438,16.771c3.469,4.396,8.205,6.88,13.133,6.88h73.203
				c4.908,0,9.645-2.521,13.15-6.918c3.488-4.453,5.439-10.479,5.439-16.733v-50.178
				C-401.805,620.573-403.775,614.491-407.244,610.094z"/>
		</g>
		<g>
			<path d="M-69.291,610.094c-3.449-4.434-8.186-6.918-13.111-6.918h-73.242c-4.869,0-9.662,2.502-13.133,6.955
				c-3.467,4.454-5.438,10.442-5.438,16.696v50.178c0.018,6.254,1.953,12.336,5.477,16.771c3.432,4.396,8.168,6.88,13.096,6.88
				h73.24c4.869,0,9.646-2.521,13.113-6.918c3.486-4.453,5.477-10.479,5.457-16.733v-50.178
				C-63.832,620.573-65.785,614.491-69.291,610.094z"/>
		</g>
		<g>
			<path d="M-69.291,758.187c-3.449-4.396-8.186-6.917-13.111-6.917h-73.242c-4.869,0-9.645,2.52-13.133,6.917
				c-3.467,4.491-5.438,10.48-5.438,16.733v50.18c0.018,6.254,1.953,12.375,5.477,16.771c3.432,4.396,8.168,6.917,13.096,6.917
				h73.24c4.869-0.038,9.646-2.521,13.113-6.955c3.486-4.453,5.477-10.479,5.457-16.733v-50.18
				C-63.832,768.667-65.785,762.621-69.291,758.187z"/>
		</g>
		<g>
			<path d="M-238.266,758.187c-3.469-4.396-8.205-6.917-13.133-6.917h-73.203c-4.908,0-9.646,2.52-13.152,6.917
				c-3.486,4.491-5.42,10.48-5.42,16.733v50.18c0,6.254,1.936,12.375,5.42,16.771c3.488,4.396,8.227,6.917,13.152,6.917h73.203
				c4.91-0.038,9.646-2.521,13.152-6.955c3.467-4.453,5.438-10.479,5.438-16.733v-50.18
				C-232.828,768.667-234.742,762.621-238.266,758.187z"/>
		</g>
		<g>
			<path d="M-407.244,906.262c-3.486-4.434-8.186-6.916-13.15-6.916h-73.203c-4.906,0-9.645,2.52-13.15,6.916
				c-3.449,4.453-5.42,10.479-5.42,16.733v50.18c0,6.254,1.951,12.298,5.438,16.771c3.469,4.396,8.205,6.878,13.133,6.878h73.203
				c4.908,0,9.645-2.521,13.15-6.878c3.488-4.491,5.439-10.518,5.439-16.771v-50.18
				C-401.805,916.741-403.775,910.658-407.244,906.262z"/>
		</g>
		<g>
			<path d="M-69.291,906.262c-3.449-4.434-8.186-6.916-13.111-6.916h-73.242c-4.869,0-9.645,2.52-13.133,6.916
				c-3.467,4.453-5.438,10.479-5.438,16.733v50.18c0.018,6.254,1.953,12.298,5.477,16.771c3.432,4.396,8.168,6.878,13.096,6.878
				h73.24c4.869,0,9.646-2.521,13.113-6.878c3.486-4.491,5.477-10.518,5.457-16.771v-50.18
				C-63.832,916.741-65.785,910.658-69.291,906.262z"/>
		</g>
		<g>
			<path d="M-238.266,906.262c-3.469-4.434-8.205-6.916-13.133-6.916h-73.203c-4.908,0-9.646,2.52-13.152,6.916
				c-3.486,4.453-5.42,10.479-5.42,16.733v50.18c0,6.254,1.914,12.298,5.42,16.771c3.488,4.396,8.227,6.878,13.152,6.878h73.203
				c4.91,0,9.646-2.521,13.152-6.878c3.467-4.491,5.438-10.518,5.438-16.771v-50.18
				C-232.828,916.741-234.742,910.658-238.266,906.262z"/>
		</g>
	</g>
</g>
<g id="Layer_3_5_">
	<g>
		<g>
			<path d="M414.643,819.69c0,82.072-71.395,159.524-159.115,159.524S96.41,908.048,96.41,820.294
				c0-87.721,73.305-158.985,161.061-158.985c1.762,0-1.895,0.343,7.215,0.359v51.967l118.561-68.375l-118.561-68.375v40.832
				c-9.125-0.049-5.453-0.229-7.215-0.229c-112.131,0-203.998,90.888-203.998,203.017s90.416,202.609,202.545,202.609
				s202.51-84.849,202.51-203.442h-43.885V819.69z"/>
		</g>
		<g>
			<g>
				<circle cx="255.527" cy="820.522" r="43.379"/>
			</g>
		</g>
	</g>
</g>
<g>
	<g>
		<path d="M-1231.825,1571.277c-4.518,0-8.762-1.756-11.952-4.944c-2.971-2.972-4.703-6.84-4.954-10.916l-7.366-1.184l-1.488-1.487
			l-199.736-199.736l-4.847,4.846l-7.018-7.019l-3.788,3.789l-80.7-80.7l2.467-4.311c2.287-3.998,7.464-10.044,15.389-17.97
			c10.788-10.787,16.697-15.008,19.26-16.563l4.361-2.649l80.707,80.708l-3.784,3.784l7.019,7.019l-5.166,5.166l201.166,201.166
			l1.447,7.253c4.183,0.224,8.053,1.928,10.98,4.856c3.191,3.191,4.948,7.441,4.946,11.967c-0.002,4.521-1.762,8.77-4.956,11.963
			C-1223.038,1569.515-1227.294,1571.277-1231.825,1571.277z M-1253.229,1548.618l10.84,1.741l-0.31,2.836
			c-0.359,3.282,0.794,6.524,3.164,8.895c2.056,2.056,4.794,3.188,7.709,3.188c2.928,0,5.678-1.139,7.744-3.205
			c2.062-2.062,3.197-4.805,3.199-7.725c0.001-2.921-1.131-5.663-3.188-7.721c-2.286-2.286-5.534-3.408-8.88-3.062l-2.715,0.279
			l-2.117-10.611l-204.122-204.123l5.166-5.166l-7.019-7.019l3.784-3.784l-73.133-73.134l-0.335,0.204
			c-2.333,1.416-7.789,5.335-18.132,15.677c-9.897,9.899-13.286,14.717-14.424,16.707l-0.189,0.331l73.214,73.214l3.788-3.789
			l7.019,7.021l4.846-4.846L-1253.229,1548.618z"/>
	</g>
	<g>
		<path d="M-1202.783,1539.036l-6.274-2.705c-5.896-2.543-20.368-16.563-24.225-25.881l-108.366-261.754l-6.527,2.701l-3.79-9.15
			l-4.947,2.047l-43.657-105.445l3.928-3.04c3.65-2.821,10.748-6.424,21.098-10.709c14.098-5.835,21.174-7.47,24.138-7.924
			l5.041-0.776l43.658,105.453l-4.948,2.049l3.791,9.153l-6.528,2.701l108.365,261.755c3.272,7.899,3.851,29.188,1.634,35.126
			L-1202.783,1539.036z M-1338.399,1240.858l110.661,267.297c3.265,7.888,16.821,20.839,21.057,22.666l0.484,0.209l0.184-0.492
			c1.731-4.639,1.063-24.408-1.557-30.731l-110.66-267.301l6.526-2.701l-3.79-9.151l4.949-2.049l-39.562-95.559l-0.387,0.06
			c-2.698,0.414-9.239,1.944-22.754,7.538c-12.927,5.352-17.905,8.507-19.722,9.911l-0.302,0.233l39.609,95.668l4.946-2.047
			l3.79,9.15L-1338.399,1240.858z"/>
	</g>
</g>
<g id="Layer_3_11_">
	<g>
		<g>
			<path d="M-832,1586.932c-64.89,0-125.895-25.27-171.779-71.153s-71.153-106.889-71.153-171.778s25.269-125.895,71.153-171.778
				s106.889-71.153,171.779-71.153s125.895,25.27,171.779,71.153s71.153,106.889,71.153,171.778s-25.269,125.895-71.153,171.778
				S-767.11,1586.932-832,1586.932z M-832,1107.068c-63.287,0-122.786,24.646-167.536,69.396
				c-44.75,44.751-69.396,104.249-69.396,167.536s24.645,122.785,69.396,167.536c44.75,44.75,104.25,69.396,167.536,69.396
				s122.786-24.646,167.536-69.396c44.75-44.751,69.396-104.249,69.396-167.536s-24.645-122.785-69.396-167.536
				C-709.214,1131.714-768.713,1107.068-832,1107.068z M-922.523,1525.09v-362.18L-683.845,1344L-922.523,1525.09z
				 M-916.523,1174.994v338.012L-693.772,1344L-916.523,1174.994z"/>
		</g>
	</g>
</g>
<g id="Layer_3_10_">
	<g>
		<g>
			<path d="M-130.451,1441.287h-315.105c-5.527,0-10.023-3.604-10.023-8.035V1276.99c0-4.423,4.496-8.021,10.023-8.021h315.105
				c5.531,0,10.031,3.599,10.031,8.021v156.262C-120.42,1437.683-124.92,1441.287-130.451,1441.287z M-445.557,1274.969
				c-2.457,0-4.023,1.327-4.023,2.021v156.262c0,0.715,1.659,2.035,4.023,2.035h315.105c2.369,0,4.031-1.32,4.031-2.035V1276.99
				c0-0.71-1.662-2.021-4.031-2.021H-445.557z"/>
		</g>
		<g>
			<path d="M-130.451,1441.287h-315.105c-5.527,0-10.023-3.604-10.023-8.035V1276.99c0-4.423,4.496-8.021,10.023-8.021h315.105
				c5.531,0,10.031,3.599,10.031,8.021v156.262C-120.42,1437.683-124.92,1441.287-130.451,1441.287z M-445.557,1274.969
				c-2.457,0-4.023,1.327-4.023,2.021v156.262c0,0.715,1.659,2.035,4.023,2.035h315.105c2.369,0,4.031-1.32,4.031-2.035V1276.99
				c0-0.71-1.662-2.021-4.031-2.021H-445.557z"/>
		</g>
		<g>
			<path d="M-91.471,1507.461h-393.059c-16.8,0-30.467-13.667-30.467-30.467v-243.731c0-16.8,13.667-30.468,30.467-30.468h130.32
				l23.545-17.784c3.312-2.507,9.189-4.472,13.377-4.472h58.576c4.17,0,10.044,1.963,13.373,4.469l23.549,17.787h130.318
				c16.8,0,30.467,13.668,30.467,30.468v243.731C-61.004,1493.794-74.671,1507.461-91.471,1507.461z M-484.529,1208.795
				c-13.491,0-24.467,10.977-24.467,24.468v243.731c0,13.491,10.976,24.467,24.467,24.467h393.059
				c13.491,0,24.467-10.976,24.467-24.467v-243.731c0-13.491-10.976-24.468-24.467-24.468h-132.33l-25.15-18.997
				c-2.304-1.734-6.867-3.259-9.76-3.259h-58.576c-2.905,0-7.465,1.522-9.758,3.258l-25.152,18.998H-484.529z M-97.787,1484.086
				h-380.439c-6.727,0-12.199-5.487-12.199-12.232v-233.451c0-6.753,5.473-12.247,12.199-12.247h380.439
				c6.733,0,12.211,5.494,12.211,12.247v233.451c0.001,3.261-1.269,6.33-3.575,8.643
				C-91.46,1482.812-94.526,1484.086-97.787,1484.086z M-478.227,1232.155c-3.418,0-6.199,2.803-6.199,6.247v233.451
				c0,3.437,2.781,6.232,6.199,6.232h380.439c3.426,0,6.213-2.796,6.213-6.232l-0.002-233.451c0-3.444-2.786-6.247-6.211-6.247
				H-478.227z"/>
		</g>
	</g>
</g>
<g id="Layer_3_8_">
	<g>
		<g>
			<g>
				<path d="M-1004.285,2115.101c-14.257,0.001-27.685-5.574-37.809-15.698c-20.87-20.869-20.87-54.828,0-75.699
					c10.142-10.142,23.588-15.727,37.863-15.727c7.042,0,13.878,1.347,20.352,4.006l53.502-53.221
					c-2.997-10.209-6.851-19.12-10.272-27.029c-16.422-38.092-28.322-65.694,34.822-130.212
					c-10.283-20.524-6.379-44.902,10.033-61.312c10.006-10.007,23.349-15.518,37.57-15.518c14.217,0,27.558,5.511,37.564,15.518
					c20.723,20.722,20.729,54.434,0.014,75.148c-10.084,10.085-23.436,15.639-37.594,15.639c-7.664,0-15.317-1.682-22.274-4.881
					c-46.776,47.888-39.243,65.353-27.897,91.646c1.677,3.886,3.674,8.512,5.647,13.502l207.821-206.777l-31.569-31.255
					l121.549-33.61l-31.94,122.119l-31.69-31.253l-167.222,166.446c2.465,0.75,4.708,1.464,6.86,2.18
					c10.098,3.204,21.571,6.845,34.467,6.845c22.059,0,44.507-11.029,68.553-33.697l-20.931-20.93l64.661-64.66l64.646,64.646
					l-64.661,64.659l-18.752-18.751c-31.522,30.064-61.533,44.69-91.667,44.692c-0.002,0-0.005,0-0.007,0
					c-17.813,0-33.318-4.92-47-9.262c-7.863-2.511-15.229-4.862-21.425-4.862c-2.669,0-5,0.428-7.107,1.306l-88.447,87.981
					c10.578,20.495,6.697,45.8-9.798,62.294C-976.564,2109.515-990.011,2115.101-1004.285,2115.101z M-1004.231,2013.977
					c-12.672,0-24.612,4.961-33.621,13.969c-18.53,18.532-18.53,48.685,0,67.215c8.991,8.99,20.912,13.941,33.566,13.94
					c12.671,0,24.611-4.962,33.62-13.97c15.134-15.134,18.312-38.615,7.728-57.104l-1.143-1.995l92.451-91.964l0.489-0.224
					c3.028-1.382,6.322-2.053,10.069-2.053c7.13,0,14.928,2.489,23.185,5.126c13.32,4.227,28.357,8.998,45.24,8.998
					c0.003,0,0.004,0,0.007,0c29.173-0.002,58.485-14.736,89.613-45.046l2.121-2.065l18.686,18.686l56.175-56.175l-56.161-56.161
					l-56.175,56.176l21.014,21.013l-2.19,2.121c-26.055,25.229-50.565,37.493-74.931,37.493c-13.825,0-25.769-3.79-36.307-7.134
					c-3.463-1.152-7.116-2.282-11.554-3.573l-4.882-1.421l178.618-177.788l28.532,28.138l26.677-102l-101.527,28.075l28.505,28.222
					l-218.665,217.565l-1.629-4.355c-2.428-6.491-5.074-12.621-7.2-17.548c-11.984-27.773-20.643-47.84,30.642-99.771l1.545-1.564
					l1.957,1.003c6.631,3.396,14.078,5.191,21.536,5.191c12.555,0,24.4-4.93,33.352-13.881
					c18.375-18.376,18.369-48.281-0.014-66.664c-8.874-8.873-20.708-13.76-33.322-13.76c-12.618,0-24.455,4.887-33.328,13.76
					c-15.036,15.034-18.24,37.603-7.975,56.158l1.087,1.964l-1.578,1.597c-62.033,62.764-51.328,87.596-35.123,125.184
					c3.682,8.514,7.857,18.167,11.025,29.476l0.475,1.695l-58.921,58.609l-1.889-0.861
					C-990.699,2015.422-997.354,2013.977-1004.231,2013.977z"/>
			</g>
		</g>
	</g>
</g>
<g id="Layer_3_7_">
	<g>
		<g>
			<g>
				<path d="M-251.398,1791.656h-73.203c-5.81,0-11.46-2.922-15.503-8.017c-3.858-4.881-6.069-11.671-6.069-18.635v-50.178
					c0-6.969,2.151-13.555,6.058-18.545c4.035-5.152,9.69-8.106,15.515-8.106h73.203c5.836,0,11.483,2.941,15.495,8.069
					c3.844,4.796,6.073,11.576,6.095,18.572v50.188c0,6.951-2.156,13.548-6.07,18.576
					C-239.979,1788.723-245.628,1791.656-251.398,1791.656z M-324.602,1694.176c-3.968,0-7.9,2.116-10.791,5.805
					c-3.083,3.939-4.781,9.212-4.781,14.847v50.178c0,5.639,1.74,11.073,4.773,14.91c2.937,3.701,6.772,5.741,10.799,5.741h73.203
					c3.935,0,7.873-2.109,10.807-5.788c3.032-3.895,4.783-9.322,4.783-14.863v-50.178c-0.018-5.655-1.767-11.074-4.798-14.857
					c-2.932-3.746-6.756-5.794-10.792-5.794H-324.602z"/>
			</g>
		</g>
		<g>
			<g>
				<path d="M-420.383,1939.788h-73.215c-5.802,0-11.447-2.938-15.488-8.059c-3.865-4.902-6.082-11.692-6.082-18.63v-50.18
					c0-6.897,2.146-13.488,6.041-18.56c4.11-5.157,9.759-8.091,15.529-8.091h73.203c5.878,0,11.383,2.86,15.501,8.054
					c3.874,4.951,6.089,11.725,6.089,18.597v50.18c0,6.98-2.158,13.58-6.078,18.583c-3.996,5.105-9.643,8.06-15.488,8.105H-420.383z
					 M-493.598,1842.27c-3.934,0-7.872,2.109-10.805,5.788c-3.062,3.986-4.766,9.279-4.766,14.862v50.18
					c0,5.615,1.747,11.051,4.793,14.914c2.896,3.67,6.824,5.774,10.777,5.774h73.19c4.062-0.035,7.897-2.096,10.801-5.805
					c3.052-3.896,4.802-9.32,4.802-14.884v-50.18c0-5.558-1.75-10.983-4.802-14.884c-2.945-3.713-6.78-5.767-10.788-5.767H-493.598z
					"/>
			</g>
		</g>
		<g>
			<g>
				<path d="M-420.395,1791.656h-73.203c-5.82,0-11.466-2.924-15.488-8.022c-3.866-4.918-6.082-11.707-6.082-18.629v-50.178
					c0-6.915,2.147-13.497,6.048-18.533c4.087-5.168,9.737-8.118,15.522-8.118h73.203c5.912,0,11.42,2.863,15.509,8.063
					c3.863,4.898,6.081,11.675,6.081,18.588v50.178c0,6.98-2.158,13.58-6.078,18.583
					C-408.977,1788.723-414.625,1791.656-420.395,1791.656z M-493.598,1694.176c-3.939,0-7.875,2.12-10.797,5.815
					c-3.027,3.909-4.773,9.325-4.773,14.836v50.178c0,5.603,1.748,11.039,4.796,14.916c2.874,3.644,6.803,5.735,10.774,5.735h73.203
					c3.934,0,7.871-2.109,10.805-5.788c3.035-3.875,4.785-9.3,4.785-14.863v-50.178c0-5.591-1.748-11.013-4.795-14.875
					c-2.93-3.727-6.763-5.776-10.795-5.776H-493.598z"/>
			</g>
		</g>
		<g>
			<g>
				<path d="M-82.402,1791.656h-73.24c-5.84,0-11.475-2.929-15.461-8.035c-3.858-4.856-6.092-11.646-6.111-18.607v-50.187
					c0-6.926,2.155-13.51,6.07-18.539c4.019-5.156,9.668-8.112,15.5-8.112h73.242c5.845,0,11.486,2.943,15.479,8.076
					c3.862,4.845,6.091,11.625,6.091,18.575v50.178c0.021,6.932-2.143,13.535-6.095,18.583
					C-70.973,1788.719-76.611,1791.656-82.402,1791.656z M-155.645,1694.176c-3.97,0-7.895,2.113-10.767,5.799
					c-3.053,3.922-4.804,9.336-4.804,14.853v50.178c0.016,5.629,1.774,11.064,4.825,14.904c2.857,3.66,6.769,5.747,10.747,5.747
					h73.24c3.942,0,7.863-2.105,10.758-5.775c3.073-3.926,4.83-9.348,4.812-14.866v-50.188c0-5.616-1.751-11.033-4.805-14.863
					c-2.87-3.688-6.786-5.788-10.766-5.788H-155.645z"/>
			</g>
		</g>
		<g>
			<g>
				<path d="M-82.391,1939.788h-73.252c-5.822,0-11.457-2.941-15.461-8.071c-3.855-4.811-6.092-11.604-6.111-18.608v-50.188
					c0-6.908,2.153-13.502,6.062-18.565c4.085-5.149,9.728-8.085,15.508-8.085h73.242c5.811,0,11.45,2.94,15.472,8.066
					c3.931,4.97,6.099,11.573,6.099,18.584v50.18c0.021,6.932-2.143,13.535-6.095,18.583c-3.991,5.104-9.624,8.06-15.452,8.105
					H-82.391z M-155.645,1842.27c-3.938,0-7.867,2.107-10.782,5.782c-3.079,3.988-4.788,9.279-4.788,14.868v50.18
					c0.016,5.663,1.771,11.095,4.817,14.896c2.883,3.692,6.794,5.793,10.755,5.793h73.227c3.984-0.035,7.907-2.149,10.764-5.803
					c3.081-3.936,4.838-9.357,4.82-14.876v-50.189c0-5.584-1.754-11.004-4.812-14.872c-2.884-3.676-6.802-5.778-10.758-5.778
					H-155.645z"/>
			</g>
		</g>
		<g>
			<g>
				<path d="M-251.387,1939.788h-73.215c-5.792,0-11.442-2.935-15.503-8.053c-3.857-4.867-6.069-11.659-6.069-18.636v-50.18
					c0-6.951,2.148-13.547,6.051-18.572c4.101-5.145,9.75-8.078,15.521-8.078h73.203c5.802,0,11.447,2.938,15.488,8.06
					c3.91,4.921,6.079,11.522,6.102,18.581v50.189c0,6.951-2.156,13.548-6.07,18.576c-4.045,5.117-9.688,8.067-15.496,8.112
					H-251.387z M-324.602,1842.27c-3.936,0-7.874,2.109-10.807,5.788c-3.064,3.947-4.766,9.236-4.766,14.862v50.18
					c0,5.648,1.739,11.082,4.771,14.908c2.914,3.673,6.852,5.78,10.801,5.78h73.19c4.034-0.035,7.874-2.1,10.812-5.815
					c3.04-3.904,4.791-9.332,4.791-14.873v-50.18c-0.018-5.623-1.77-11.045-4.806-14.866c-2.902-3.679-6.831-5.784-10.784-5.784
					H-324.602z"/>
			</g>
		</g>
		<g>
			<g>
				<path d="M-420.395,2087.824h-73.203c-5.821,0-11.466-2.923-15.488-8.02c-3.926-5.038-6.082-11.649-6.082-18.63v-50.18
					c0-6.94,2.147-13.535,6.048-18.57c4.104-5.146,9.752-8.079,15.522-8.079h73.203c5.913,0,11.421,2.863,15.509,8.062
					c3.863,4.897,6.081,11.674,6.081,18.588v50.18c0,6.962-2.155,13.572-6.07,18.611
					C-408.996,2084.909-414.641,2087.824-420.395,2087.824z M-493.598,1990.346c-3.935,0-7.872,2.109-10.805,5.786
					c-3.02,3.898-4.766,9.328-4.766,14.863v50.18c0,5.569,1.751,11.01,4.804,14.928c2.908,3.685,6.735,5.722,10.767,5.722h73.203
					c3.928,0,7.868-2.099,10.813-5.759c3.023-3.894,4.776-9.336,4.776-14.891v-50.18c0-5.592-1.748-11.013-4.795-14.875
					c-2.929-3.726-6.762-5.774-10.795-5.774H-493.598z"/>
			</g>
		</g>
		<g>
			<g>
				<path d="M-82.402,2087.824h-73.24c-5.84,0-11.476-2.928-15.46-8.032c-3.919-4.976-6.093-11.588-6.112-18.608v-50.188
					c0-6.951,2.156-13.548,6.07-18.576c4.077-5.139,9.72-8.073,15.5-8.073h73.242c5.846,0,11.487,2.942,15.479,8.074
					c3.862,4.844,6.091,11.624,6.091,18.575v50.18c0.021,6.913-2.141,13.526-6.087,18.611
					C-70.991,2084.904-76.627,2087.824-82.402,2087.824z M-155.645,1990.346c-3.938,0-7.868,2.107-10.782,5.78
					c-3.037,3.9-4.788,9.328-4.788,14.869v50.18c0.016,5.596,1.777,11.035,4.833,14.915c2.849,3.648,6.76,5.734,10.739,5.734h73.24
					c3.937,0,7.86-2.094,10.766-5.746c3.062-3.945,4.822-9.385,4.805-14.894v-50.189c0-5.616-1.751-11.034-4.805-14.863
					c-2.869-3.688-6.785-5.786-10.766-5.786H-155.645z"/>
			</g>
		</g>
		<g>
			<g>
				<path d="M-251.398,2087.824h-73.203c-5.811,0-11.461-2.921-15.502-8.013c-3.919-5-6.07-11.613-6.07-18.637v-50.18
					c0-6.993,2.151-13.593,6.058-18.583c4.094-5.134,9.743-8.066,15.515-8.066h73.203c5.837,0,11.484,2.94,15.495,8.067
					c3.844,4.795,6.073,11.574,6.095,18.572v50.189c0,6.933-2.153,13.54-6.062,18.604
					C-239.998,2084.909-245.644,2087.824-251.398,2087.824z M-324.602,1990.346c-3.936,0-7.874,2.109-10.807,5.786
					c-3.022,3.861-4.766,9.286-4.766,14.863v50.18c0,5.605,1.743,11.044,4.781,14.921c2.928,3.689,6.764,5.729,10.791,5.729h73.203
					c3.929,0,7.87-2.099,10.815-5.759c3.021-3.914,4.774-9.359,4.774-14.891v-50.18c-0.018-5.656-1.767-11.074-4.798-14.857
					c-2.931-3.745-6.755-5.792-10.792-5.792H-324.602z"/>
			</g>
		</g>
	</g>
</g>
<g id="Layer_3_6_">
	<g>
		<g>
			<g>
				<path d="M256.018,2114.115c-55.028,0-106.681-21.356-145.442-60.136c-38.758-38.774-60.103-90.438-60.103-145.474
					c0-113.599,92.859-206.018,206.998-206.018c0.438,0,0.887,0,1.364,0.13c0.32,0.021,1.074,0.05,2.851,0.073v-43l127.565,73.568
					l-127.565,73.568v-54.177c-2.438-0.029-3.668-0.11-4.443-0.342c-41.69,0.06-81.142,16.297-111.107,45.737
					c-30.131,29.602-46.725,68.755-46.725,110.248c0,85.975,70.034,155.92,156.117,155.92c40.973,0,80.146-17.074,110.303-48.077
					c29.114-29.932,45.812-69.46,45.812-108.448v-3l3-0.018h46.885v3c0,57.505-21.345,110.184-60.102,148.332
					C363.354,2093.478,311.714,2114.115,256.018,2114.115z M257.471,1708.488c-110.831,0-200.998,89.728-200.998,200.018
					c0,53.434,20.721,103.591,58.346,141.232c37.629,37.645,87.774,58.377,141.199,58.377c54.111,0,104.257-20.025,141.199-56.387
					c36.928-36.349,57.562-86.345,58.291-141.057h-37.896c-0.831,39.572-18.03,79.373-47.48,109.649
					c-31.297,32.174-71.997,49.894-114.604,49.894c-89.392,0-162.117-72.637-162.117-161.92c0-43.115,17.231-83.789,48.52-114.528
					c31.15-30.603,72.184-47.457,115.541-47.457c0.427,0,1.039,0,1.675,0.252c0.529,0.04,1.924,0.101,5.545,0.106l2.995,0.005
					v49.769l109.556-63.182l-109.556-63.182v38.654l-3.016-0.016c-4.798-0.025-6.407-0.062-7.205-0.229H257.471z"/>
			</g>
		</g>
		<g>
			<g>
				<g>
					<path d="M255.527,1954.9c-25.573,0-46.379-20.806-46.379-46.379s20.806-46.378,46.379-46.378s46.379,20.805,46.379,46.378
						S281.101,1954.9,255.527,1954.9z M255.527,1868.144c-22.265,0-40.379,18.113-40.379,40.378s18.114,40.379,40.379,40.379
						s40.379-18.114,40.379-40.379S277.792,1868.144,255.527,1868.144z"/>
				</g>
			</g>
		</g>
	</g>
</g>
<g>
	<rect x="18" y="92" width="23" height="328"/>
	<path d="M329.534,93.144c-90.582,0-164.276,73.057-164.276,162.856s73.694,162.856,164.276,162.856S493.81,345.799,493.81,256
		S420.116,93.144,329.534,93.144z M329.534,396.546c-78.28,0-141.966-63.049-141.966-140.546s63.686-140.546,141.966-140.546
		S471.5,178.503,471.5,256S407.814,396.546,329.534,396.546z"/>
	<polygon points="189.54,92 40.935,421 64.841,421 213.445,92 	"/>
</g>
<g>
	<path d="M-1268.087,903.058c-18.081,0-32.746,15.206-32.746,33.88c0,18.675,14.665,33.848,32.746,33.848
		s32.762-15.192,32.762-33.848C-1235.325,918.264-1249.99,903.058-1268.087,903.058z"/>
	<path d="M-1373.315,900.479c-18.064,0-32.746,15.173-32.746,33.865c0,18.655,14.712,33.829,32.746,33.829
		c18.065,0,32.778-15.174,32.778-33.829C-1340.538,915.651-1355.25,900.479-1373.315,900.479z"/>
	<path d="M-1478.543,897.885c-18.081,0-32.762,15.206-32.762,33.88c0,18.675,14.696,33.848,32.762,33.848
		c18.081,0,32.777-15.173,32.777-33.848C-1445.766,913.091-1460.462,897.885-1478.543,897.885z"/>
	<path d="M-1376,557.068c-133.938,0-242.932,109.019-242.932,242.932c0,133.917,108.993,242.932,242.932,242.932
		S-1133.068,933.965-1133.068,800C-1133.068,666.087-1242.062,557.068-1376,557.068z M-1376.5,1031.01
		c-72.362,0-137.5-33.331-179.5-85.419V726.062c0-30.12,24.097-53.062,53.204-53.062h253.561c29.124,0,52.236,22.942,52.236,53.062
		V945.59C-1240,997.679-1304.138,1031.01-1376.5,1031.01z"/>
	<rect x="-1513" y="715" width="282" height="157"/>
</g>
<g>
	<path d="M-1268.087,1987.558c-19.986,0-36.246,16.769-36.246,37.38c0,20.594,16.26,37.348,36.246,37.348
		c19.995,0,36.262-16.754,36.262-37.348C-1231.825,2004.326-1248.092,1987.558-1268.087,1987.558z M-1268.087,2055.285
		c-16.126,0-29.246-13.614-29.246-30.348c0-16.752,13.12-30.38,29.246-30.38c16.135,0,29.262,13.628,29.262,30.38
		C-1238.825,2041.671-1251.952,2055.285-1268.087,2055.285z"/>
	<path d="M-1373.315,1984.979c-19.986,0-36.246,16.762-36.246,37.365c0,20.583,16.26,37.329,36.246,37.329
		c20.004,0,36.278-16.746,36.278-37.329C-1337.038,2001.74-1353.312,1984.979-1373.315,1984.979z M-1373.315,2052.673
		c-16.126,0-29.246-13.605-29.246-30.329c0-16.743,13.12-30.365,29.246-30.365c16.144,0,29.278,13.622,29.278,30.365
		C-1344.038,2039.067-1357.171,2052.673-1373.315,2052.673z"/>
	<path d="M-1478.543,1982.385c-19.995,0-36.262,16.769-36.262,37.38c0,20.594,16.267,37.348,36.262,37.348
		c20.003,0,36.277-16.754,36.277-37.348C-1442.266,1999.153-1458.54,1982.385-1478.543,1982.385z M-1478.543,2050.112
		c-16.135,0-29.262-13.614-29.262-30.348c0-16.752,13.127-30.38,29.262-30.38c16.144,0,29.277,13.628,29.277,30.38
		C-1449.266,2036.498-1462.399,2050.112-1478.543,2050.112z"/>
	<path d="M-1376,1641.568c-135.883,0-246.432,110.549-246.432,246.432s110.549,246.432,246.432,246.432
		s246.432-110.549,246.432-246.432S-1240.117,1641.568-1376,1641.568z M-1204,2054.383c-43.558,45.014-104.563,73.049-172,73.049
		c-71.673,0-136.083-31.664-180-81.729v-222.64c0-38.037,26.721-55.062,53.204-55.062h253.561c28.325,0,45.236,19.089,45.236,51.062
		V2054.383z M-1249.236,1761h-253.561c-16.023,0-30.812,5.52-41.644,15.542c-12.142,11.235-18.56,27.322-18.56,46.521v214.282
		c-32.79-40.975-52.432-92.905-52.432-149.345c0-132.023,107.409-239.432,239.432-239.432s239.432,107.408,239.432,239.432
		c0,60.891-22.86,116.533-60.432,158.829v-227.767C-1197,1783.248-1217.016,1761-1249.236,1761z"/>
	<path d="M-1520,1967h289v-164h-289V1967z M-1513,1810h275v150h-275V1810z"/>
</g>
<g>
	<path d="M34,1186v316H23v-316H34 M40,1180H17v328h23V1180L40,1180z"/>
	<path d="M331.129,1184.572c87.273,0,158.275,70.365,158.275,156.855c0,86.491-71.002,156.857-158.275,156.857
		s-158.275-70.366-158.275-156.857C172.854,1254.938,243.855,1184.572,331.129,1184.572 M331.129,1487.975
		c81.589,0,147.967-65.74,147.967-146.547c0-80.805-66.378-146.545-147.967-146.545c-81.588,0-147.965,65.74-147.965,146.545
		C183.164,1422.234,249.541,1487.975,331.129,1487.975 M331.129,1178.572c-90.582,0-164.275,73.057-164.275,162.855
		c0,89.801,73.693,162.857,164.275,162.857s164.275-73.057,164.275-162.857C495.404,1251.629,421.711,1178.572,331.129,1178.572
		L331.129,1178.572z M331.129,1481.975c-78.279,0-141.965-63.049-141.965-140.547c0-77.496,63.686-140.545,141.965-140.545
		c78.281,0,141.967,63.049,141.967,140.545C473.096,1418.926,409.41,1481.975,331.129,1481.975L331.129,1481.975z"/>
	<path d="M205.747,1186L62.562,1503H51.823l143.185-317H206 M215.041,1180h-23.906L42.529,1509h23.906L215.041,1180L215.041,1180z"
		/>
</g>
</svg>
