<?xml version="1.0" encoding="utf-8"?>
<!-- Generator: Adobe Illustrator 16.0.4, SVG Export Plug-In . SVG Version: 6.00 Build 0)  -->
<!DOCTYPE svg PUBLIC "-//W3C//DTD SVG 1.1//EN" "http://www.w3.org/Graphics/SVG/1.1/DTD/svg11.dtd">
<svg version="1.1" id="Layer_1" xmlns="http://www.w3.org/2000/svg" xmlns:xlink="http://www.w3.org/1999/xlink" x="0px" y="0px"
	 width="512px" height="512px" viewBox="0 0 512 512" enable-background="new 0 0 512 512" xml:space="preserve">
<path d="M428.007,289.671c-3.509,38.672-21.38,76.906-49.99,106.319c-33.386,34.322-76.887,53.224-122.489,53.224
	c-95.457,0-173.117-77.571-173.117-172.92c0-46.091,18.4-89.551,51.811-122.375c33.22-32.636,76.991-50.61,123.25-50.61h10.215h11
	v11v31.09l76.537-44.14L278.686,57.12v19.368v11.001l-11.001-0.001l-10.214-0.001C152.706,87.488,67.473,172.281,67.473,276.506
	c0,50.497,19.577,97.893,55.125,133.456c35.552,35.566,82.935,55.153,133.419,55.153c51.207,0,98.612-18.903,133.482-53.228
	c32.271-31.764,51.417-74.827,54.565-122.217H428.007z"/>
<path d="M255.527,247.144c-16.2,0-29.379,13.178-29.379,29.377s13.179,29.379,29.379,29.379s29.379-13.18,29.379-29.379
	S271.727,247.144,255.527,247.144z"/>
</svg>
