<?xml version="1.0" encoding="utf-8"?>
<!-- Generator: Adobe Illustrator 16.0.4, SVG Export Plug-In . SVG Version: 6.00 Build 0)  -->
<!DOCTYPE svg PUBLIC "-//W3C//DTD SVG 1.1//EN" "http://www.w3.org/Graphics/SVG/1.1/DTD/svg11.dtd">
<svg version="1.1" id="Layer_1" xmlns="http://www.w3.org/2000/svg" xmlns:xlink="http://www.w3.org/1999/xlink" x="0px" y="0px"
	 width="512px" height="512px" viewBox="0 0 512 512" enable-background="new 0 0 512 512" xml:space="preserve">
<g id="Layer_3_4_">
	<g>
		<g>
			<path d="M305.734,66.094c-3.469-4.434-8.205-6.918-13.133-6.918h-73.203c-4.908,0-9.664,2.502-13.152,6.955
				c-3.486,4.454-5.42,10.442-5.42,16.696v50.178c0,6.254,1.914,12.336,5.42,16.771c3.488,4.396,8.227,6.88,13.152,6.88h73.203
				c4.91,0,9.646-2.521,13.152-6.918c3.467-4.453,5.438-10.479,5.438-16.733V82.827C311.172,76.573,309.258,70.491,305.734,66.094z"
				/>
		</g>
		<g>
			<path d="M136.756,214.187c-3.486-4.396-8.186-6.917-13.15-6.917H50.402c-4.906,0-9.645,2.52-13.15,6.917
				c-3.449,4.491-5.42,10.48-5.42,16.733v50.18c0,6.254,1.971,12.375,5.438,16.771c3.469,4.396,8.205,6.917,13.133,6.917h73.203
				c4.908-0.038,9.664-2.502,13.15-6.955c3.488-4.453,5.439-10.479,5.439-16.733v-50.18
				C142.195,224.667,140.225,218.621,136.756,214.187z"/>
		</g>
		<g>
			<path d="M136.756,66.094c-3.486-4.434-8.186-6.918-13.15-6.918H50.402c-4.906,0-9.645,2.521-13.15,6.955
				c-3.449,4.454-5.42,10.442-5.42,16.696v50.178c0,6.254,1.951,12.336,5.438,16.771c3.469,4.396,8.205,6.88,13.133,6.88h73.203
				c4.908,0,9.645-2.521,13.15-6.918c3.488-4.453,5.439-10.479,5.439-16.733V82.827C142.195,76.573,140.225,70.491,136.756,66.094z"
				/>
		</g>
		<g>
			<path d="M474.709,66.094c-3.449-4.434-8.186-6.918-13.111-6.918h-73.242c-4.869,0-9.662,2.502-13.133,6.955
				c-3.467,4.454-5.438,10.442-5.438,16.696v50.178c0.018,6.254,1.953,12.336,5.477,16.771c3.432,4.396,8.168,6.88,13.096,6.88
				h73.24c4.869,0,9.646-2.521,13.113-6.918c3.486-4.453,5.477-10.479,5.457-16.733V82.827
				C480.168,76.573,478.215,70.491,474.709,66.094z"/>
		</g>
		<g>
			<path d="M474.709,214.187c-3.449-4.396-8.186-6.917-13.111-6.917h-73.242c-4.869,0-9.645,2.52-13.133,6.917
				c-3.467,4.491-5.438,10.48-5.438,16.733v50.18c0.018,6.254,1.953,12.375,5.477,16.771c3.432,4.396,8.168,6.917,13.096,6.917
				h73.24c4.869-0.038,9.646-2.521,13.113-6.955c3.486-4.453,5.477-10.479,5.457-16.733v-50.18
				C480.168,224.667,478.215,218.621,474.709,214.187z"/>
		</g>
		<g>
			<path d="M305.734,214.187c-3.469-4.396-8.205-6.917-13.133-6.917h-73.203c-4.908,0-9.646,2.52-13.152,6.917
				c-3.486,4.491-5.42,10.48-5.42,16.733v50.18c0,6.254,1.936,12.375,5.42,16.771c3.488,4.396,8.227,6.917,13.152,6.917h73.203
				c4.91-0.038,9.646-2.521,13.152-6.955c3.467-4.453,5.438-10.479,5.438-16.733v-50.18
				C311.172,224.667,309.258,218.621,305.734,214.187z"/>
		</g>
		<g>
			<path d="M136.756,362.262c-3.486-4.434-8.186-6.916-13.15-6.916H50.402c-4.906,0-9.645,2.52-13.15,6.916
				c-3.449,4.453-5.42,10.479-5.42,16.733v50.18c0,6.254,1.951,12.298,5.438,16.771c3.469,4.396,8.205,6.878,13.133,6.878h73.203
				c4.908,0,9.645-2.521,13.15-6.878c3.488-4.491,5.439-10.518,5.439-16.771v-50.18
				C142.195,372.741,140.225,366.658,136.756,362.262z"/>
		</g>
		<g>
			<path d="M474.709,362.262c-3.449-4.434-8.186-6.916-13.111-6.916h-73.242c-4.869,0-9.645,2.52-13.133,6.916
				c-3.467,4.453-5.438,10.479-5.438,16.733v50.18c0.018,6.254,1.953,12.298,5.477,16.771c3.432,4.396,8.168,6.878,13.096,6.878
				h73.24c4.869,0,9.646-2.521,13.113-6.878c3.486-4.491,5.477-10.518,5.457-16.771v-50.18
				C480.168,372.741,478.215,366.658,474.709,362.262z"/>
		</g>
		<g>
			<path d="M305.734,362.262c-3.469-4.434-8.205-6.916-13.133-6.916h-73.203c-4.908,0-9.646,2.52-13.152,6.916
				c-3.486,4.453-5.42,10.479-5.42,16.733v50.18c0,6.254,1.914,12.298,5.42,16.771c3.488,4.396,8.227,6.878,13.152,6.878h73.203
				c4.91,0,9.646-2.521,13.152-6.878c3.467-4.491,5.438-10.518,5.438-16.771v-50.18
				C311.172,372.741,309.258,366.658,305.734,362.262z"/>
		</g>
	</g>
</g>
</svg>
