<?xml version="1.0" encoding="utf-8"?>
<!-- Generator: Adobe Illustrator 16.0.4, SVG Export Plug-In . SVG Version: 6.00 Build 0)  -->
<!DOCTYPE svg PUBLIC "-//W3C//DTD SVG 1.1//EN" "http://www.w3.org/Graphics/SVG/1.1/DTD/svg11.dtd">
<svg version="1.1" id="Layer_1" xmlns="http://www.w3.org/2000/svg" xmlns:xlink="http://www.w3.org/1999/xlink" x="0px" y="0px"
	 width="512px" height="512px" viewBox="0 0 512 512" enable-background="new 0 0 512 512" xml:space="preserve">
<g id="Layer_3_7_">
	<g>
		<g>
			<g>
				<path d="M292.602,159.656h-73.203c-5.81,0-11.46-2.922-15.503-8.017c-3.858-4.881-6.069-11.671-6.069-18.635V82.827
					c0-6.969,2.151-13.555,6.058-18.545c4.035-5.152,9.69-8.106,15.515-8.106h73.203c5.836,0,11.483,2.941,15.495,8.069
					c3.844,4.796,6.073,11.576,6.095,18.572v50.188c0,6.951-2.156,13.548-6.07,18.576
					C304.021,156.723,298.372,159.656,292.602,159.656z M219.398,62.176c-3.968,0-7.9,2.116-10.791,5.805
					c-3.083,3.939-4.781,9.212-4.781,14.847v50.178c0,5.639,1.74,11.073,4.773,14.91c2.937,3.701,6.772,5.741,10.799,5.741h73.203
					c3.935,0,7.873-2.109,10.807-5.788c3.032-3.895,4.783-9.322,4.783-14.863V82.827c-0.018-5.655-1.767-11.074-4.798-14.857
					c-2.932-3.746-6.756-5.794-10.792-5.794H219.398z"/>
			</g>
		</g>
		<g>
			<g>
				<path d="M123.617,307.788H50.402c-5.802,0-11.447-2.938-15.488-8.059c-3.865-4.902-6.082-11.692-6.082-18.63v-50.18
					c0-6.897,2.146-13.488,6.041-18.56c4.11-5.157,9.759-8.091,15.529-8.091h73.203c5.878,0,11.383,2.86,15.501,8.054
					c3.874,4.951,6.089,11.725,6.089,18.597v50.18c0,6.98-2.158,13.58-6.078,18.583c-3.996,5.105-9.643,8.06-15.488,8.105H123.617z
					 M50.402,210.27c-3.934,0-7.872,2.109-10.805,5.788c-3.062,3.986-4.766,9.279-4.766,14.862v50.18
					c0,5.615,1.747,11.051,4.793,14.914c2.896,3.67,6.824,5.774,10.777,5.774h73.19c4.062-0.035,7.897-2.096,10.801-5.805
					c3.052-3.896,4.802-9.32,4.802-14.884v-50.18c0-5.558-1.75-10.983-4.802-14.884c-2.945-3.713-6.78-5.767-10.788-5.767H50.402z"
					/>
			</g>
		</g>
		<g>
			<g>
				<path d="M123.605,159.656H50.402c-5.82,0-11.466-2.924-15.488-8.022c-3.866-4.918-6.082-11.707-6.082-18.629V82.827
					c0-6.915,2.147-13.497,6.048-18.533c4.087-5.168,9.737-8.118,15.522-8.118h73.203c5.912,0,11.42,2.863,15.509,8.063
					c3.863,4.898,6.081,11.675,6.081,18.588v50.178c0,6.98-2.158,13.58-6.078,18.583
					C135.023,156.723,129.375,159.656,123.605,159.656z M50.402,62.176c-3.939,0-7.875,2.12-10.797,5.815
					c-3.027,3.909-4.773,9.325-4.773,14.836v50.178c0,5.603,1.748,11.039,4.796,14.916c2.874,3.644,6.803,5.735,10.774,5.735h73.203
					c3.934,0,7.871-2.109,10.805-5.788c3.035-3.875,4.785-9.3,4.785-14.863V82.827c0-5.591-1.748-11.013-4.795-14.875
					c-2.93-3.727-6.763-5.776-10.795-5.776H50.402z"/>
			</g>
		</g>
		<g>
			<g>
				<path d="M461.598,159.656h-73.24c-5.84,0-11.475-2.929-15.461-8.035c-3.858-4.856-6.092-11.646-6.111-18.607V82.827
					c0-6.926,2.155-13.51,6.07-18.539c4.019-5.156,9.668-8.112,15.5-8.112h73.242c5.845,0,11.486,2.943,15.479,8.076
					c3.862,4.845,6.091,11.625,6.091,18.575v50.178c0.021,6.932-2.143,13.535-6.095,18.583
					C473.027,156.719,467.389,159.656,461.598,159.656z M388.355,62.176c-3.97,0-7.895,2.113-10.767,5.799
					c-3.053,3.922-4.804,9.336-4.804,14.853v50.178c0.016,5.629,1.774,11.064,4.825,14.904c2.857,3.66,6.769,5.747,10.747,5.747
					h73.24c3.942,0,7.863-2.105,10.758-5.775c3.073-3.926,4.83-9.348,4.812-14.866V82.827c0-5.616-1.751-11.033-4.805-14.863
					c-2.87-3.688-6.786-5.788-10.766-5.788H388.355z"/>
			</g>
		</g>
		<g>
			<g>
				<path d="M461.609,307.788h-73.252c-5.822,0-11.457-2.941-15.461-8.071c-3.855-4.811-6.092-11.604-6.111-18.608V230.92
					c0-6.908,2.153-13.502,6.062-18.565c4.085-5.149,9.728-8.085,15.508-8.085h73.242c5.811,0,11.45,2.94,15.472,8.066
					c3.931,4.97,6.099,11.573,6.099,18.584v50.18c0.021,6.932-2.143,13.535-6.095,18.583c-3.991,5.104-9.624,8.06-15.452,8.105
					H461.609z M388.355,210.27c-3.938,0-7.867,2.107-10.782,5.782c-3.079,3.988-4.788,9.279-4.788,14.868v50.18
					c0.016,5.663,1.771,11.095,4.817,14.896c2.883,3.692,6.794,5.793,10.755,5.793h73.227c3.984-0.035,7.907-2.149,10.764-5.803
					c3.081-3.936,4.838-9.357,4.82-14.876V230.92c0-5.584-1.754-11.004-4.812-14.872c-2.884-3.676-6.802-5.778-10.758-5.778H388.355
					z"/>
			</g>
		</g>
		<g>
			<g>
				<path d="M292.613,307.788h-73.215c-5.792,0-11.442-2.935-15.503-8.053c-3.857-4.867-6.069-11.659-6.069-18.636v-50.18
					c0-6.951,2.148-13.547,6.051-18.572c4.101-5.145,9.75-8.078,15.521-8.078h73.203c5.802,0,11.447,2.938,15.488,8.06
					c3.91,4.921,6.079,11.522,6.102,18.581V281.1c0,6.951-2.156,13.548-6.07,18.576c-4.045,5.117-9.688,8.067-15.496,8.112H292.613z
					 M219.398,210.27c-3.936,0-7.874,2.109-10.807,5.788c-3.064,3.947-4.766,9.236-4.766,14.862v50.18
					c0,5.648,1.739,11.082,4.771,14.908c2.914,3.673,6.852,5.78,10.801,5.78h73.19c4.034-0.035,7.874-2.1,10.812-5.815
					c3.04-3.904,4.791-9.332,4.791-14.873v-50.18c-0.018-5.623-1.77-11.045-4.806-14.866c-2.902-3.679-6.831-5.784-10.784-5.784
					H219.398z"/>
			</g>
		</g>
		<g>
			<g>
				<path d="M123.605,455.824H50.402c-5.821,0-11.466-2.923-15.488-8.02c-3.926-5.038-6.082-11.649-6.082-18.63v-50.18
					c0-6.94,2.147-13.535,6.048-18.57c4.104-5.146,9.752-8.079,15.522-8.079h73.203c5.913,0,11.421,2.863,15.509,8.062
					c3.863,4.897,6.081,11.674,6.081,18.588v50.18c0,6.962-2.155,13.572-6.07,18.611
					C135.004,452.909,129.359,455.824,123.605,455.824z M50.402,358.346c-3.935,0-7.872,2.109-10.805,5.786
					c-3.02,3.898-4.766,9.328-4.766,14.863v50.18c0,5.569,1.751,11.01,4.804,14.928c2.908,3.685,6.735,5.722,10.767,5.722h73.203
					c3.928,0,7.868-2.099,10.813-5.759c3.023-3.894,4.776-9.336,4.776-14.891v-50.18c0-5.592-1.748-11.013-4.795-14.875
					c-2.929-3.726-6.762-5.774-10.795-5.774H50.402z"/>
			</g>
		</g>
		<g>
			<g>
				<path d="M461.598,455.824h-73.24c-5.84,0-11.476-2.928-15.46-8.032c-3.919-4.976-6.093-11.588-6.112-18.608v-50.188
					c0-6.951,2.156-13.548,6.07-18.576c4.077-5.139,9.72-8.073,15.5-8.073h73.242c5.846,0,11.487,2.942,15.479,8.074
					c3.862,4.844,6.091,11.624,6.091,18.575v50.18c0.021,6.913-2.141,13.526-6.087,18.611
					C473.009,452.904,467.373,455.824,461.598,455.824z M388.355,358.346c-3.938,0-7.868,2.107-10.782,5.78
					c-3.037,3.9-4.788,9.328-4.788,14.869v50.18c0.016,5.596,1.777,11.035,4.833,14.915c2.849,3.648,6.76,5.734,10.739,5.734h73.24
					c3.937,0,7.86-2.094,10.766-5.746c3.062-3.945,4.822-9.385,4.805-14.894v-50.189c0-5.616-1.751-11.034-4.805-14.863
					c-2.869-3.688-6.785-5.786-10.766-5.786H388.355z"/>
			</g>
		</g>
		<g>
			<g>
				<path d="M292.602,455.824h-73.203c-5.811,0-11.461-2.921-15.502-8.013c-3.919-5-6.07-11.613-6.07-18.637v-50.18
					c0-6.993,2.151-13.593,6.058-18.583c4.094-5.134,9.743-8.066,15.515-8.066h73.203c5.837,0,11.484,2.94,15.495,8.067
					c3.844,4.795,6.073,11.574,6.095,18.572v50.189c0,6.933-2.153,13.54-6.062,18.604
					C304.002,452.909,298.356,455.824,292.602,455.824z M219.398,358.346c-3.936,0-7.874,2.109-10.807,5.786
					c-3.022,3.861-4.766,9.286-4.766,14.863v50.18c0,5.605,1.743,11.044,4.781,14.921c2.928,3.689,6.764,5.729,10.791,5.729h73.203
					c3.929,0,7.87-2.099,10.815-5.759c3.021-3.914,4.774-9.359,4.774-14.891v-50.18c-0.018-5.656-1.767-11.074-4.798-14.857
					c-2.931-3.745-6.755-5.792-10.792-5.792H219.398z"/>
			</g>
		</g>
	</g>
</g>
</svg>
