<?xml version="1.0" encoding="utf-8"?>
<!-- Generator: Adobe Illustrator 16.0.4, SVG Export Plug-In . SVG Version: 6.00 Build 0)  -->
<!DOCTYPE svg PUBLIC "-//W3C//DTD SVG 1.1//EN" "http://www.w3.org/Graphics/SVG/1.1/DTD/svg11.dtd">
<svg version="1.1" id="Layer_1" xmlns="http://www.w3.org/2000/svg" xmlns:xlink="http://www.w3.org/1999/xlink" x="0px" y="0px"
	 width="512px" height="512px" viewBox="0 0 512 512" enable-background="new 0 0 512 512" xml:space="preserve">
<path d="M359.52,239.331l13.908,13.908l7.186,7.187l-7.301,7.069c-27.425,26.554-53.528,39.462-79.801,39.462
	c-14.909,0-27.401-3.963-38.422-7.46l-0.07-0.021l-0.087-0.029c-3.309-1.104-6.88-2.207-11.237-3.476l-16.272-4.734l12.011-11.955
	l172.909-172.104l7.022-6.99l7.054,6.957l17.792,17.546l20.539-78.525L386.581,67.78l17.771,17.593l7.16,7.089l-7.142,7.106
	L191.145,311.724l-10.989,10.934l-5.431-14.52c-2.36-6.309-4.863-12.108-7.071-17.227c-6.216-14.403-12.087-28.009-8.744-45.449
	c3.4-17.737,15.994-36.863,40.832-62.014l5.151-5.215l6.523,3.342c5.648,2.893,11.991,4.422,18.344,4.422
	c10.686,0,20.772-4.202,28.402-11.832c15.646-15.646,15.64-41.11-0.014-56.765c-7.552-7.551-17.628-11.709-28.373-11.709
	c-10.749,0-20.827,4.158-28.378,11.71c-12.808,12.806-15.541,32.022-6.8,47.819l3.623,6.548l-5.261,5.323
	c-27.801,28.128-42.127,49.89-45.084,68.485c-2.618,16.464,3.573,30.824,11.411,49.005c3.769,8.715,8.045,18.604,11.338,30.361
	l1.582,5.649l-4.159,4.138l-56.201,55.902l-4.906,4.88l-6.296-2.872c-5.331-2.431-11.008-3.664-16.875-3.664
	c-10.803,0-20.985,4.232-28.671,11.919c-7.682,7.683-11.914,17.859-11.916,28.654c-0.001,10.797,4.23,20.976,11.916,28.661
	c7.668,7.668,17.831,11.891,28.616,11.891c10.802,0,20.984-4.233,28.67-11.921c12.907-12.906,15.622-32.922,6.603-48.675
	l-3.809-6.652l5.435-5.406l90.439-89.963l1.271-1.264l1.631-0.744c3.905-1.782,8.271-2.685,12.975-2.685
	c8.221,0,16.523,2.65,25.313,5.457l0.033,0.011c13.411,4.256,27.277,8.656,43.084,8.656c12.53,0,24.717-2.806,37.257-8.576
	c15.171-6.982,31.144-18.585,47.473-34.485l7.07-6.883l6.978,6.977l11.643,11.643l46.275-46.275l-46.261-46.261L359.52,239.331z"/>
</svg>
