<?xml version="1.0" encoding="utf-8"?>
<!-- Generator: Adobe Illustrator 16.0.4, SVG Export Plug-In . SVG Version: 6.00 Build 0)  -->
<!DOCTYPE svg PUBLIC "-//W3C//DTD SVG 1.1//EN" "http://www.w3.org/Graphics/SVG/1.1/DTD/svg11.dtd">
<svg version="1.1" id="Layer_1" xmlns="http://www.w3.org/2000/svg" xmlns:xlink="http://www.w3.org/1999/xlink" x="0px" y="0px"
	 width="512px" height="512px" viewBox="0 0 512 512" enable-background="new 0 0 512 512" xml:space="preserve">
<g id="Layer_3_3_">
	<g>
		<g>
			<path d="M367.279,62.742l111.538-30.842l-29.309,112.059l-30.111-29.695L246.489,286.369c3.739,1.088,7.673,2.28,11.607,3.591
				c25.879,8.21,58.466,18.564,108.26-29.65l-20.979-20.979l60.418-60.418l60.403,60.403l-60.418,60.417l-18.714-18.713
				c-62.385,60.744-104.477,47.351-137.865,36.756c-12.039-3.844-22.439-7.151-31.096-3.202l-90.439,89.963
				c11.055,19.31,8.299,44.207-8.21,60.715c-19.787,19.787-51.657,19.801-71.429,0.03c-19.801-19.801-19.785-51.671,0-71.458
				c15.406-15.406,38.083-18.804,56.768-10.281l56.201-55.903c-3.084-11.011-7.167-20.486-10.892-29.099
				c-16.509-38.292-27.683-64.306,35.744-128.479c-10.519-19.012-7.882-43.373,8.479-59.732c19.504-19.504,51.358-19.533,70.893,0
				c19.547,19.548,19.518,51.403,0.014,70.907c-15.957,15.957-39.558,18.878-58.376,9.238
				c-49.809,50.435-41.853,69.059-30.022,96.474c2.398,5.557,4.887,11.353,7.256,17.686L397.316,92.48L367.279,62.742
				L367.279,62.742z"/>
		</g>
	</g>
</g>
</svg>
