<?xml version="1.0" encoding="utf-8"?>
<!-- Generator: Adobe Illustrator 16.0.4, SVG Export Plug-In . SVG Version: 6.00 Build 0)  -->
<!DOCTYPE svg PUBLIC "-//W3C//DTD SVG 1.1//EN" "http://www.w3.org/Graphics/SVG/1.1/DTD/svg11.dtd">
<svg version="1.1" id="Layer_1" xmlns="http://www.w3.org/2000/svg" xmlns:xlink="http://www.w3.org/1999/xlink" x="0px" y="0px"
	 width="512px" height="512px" viewBox="0 0 512 512" enable-background="new 0 0 512 512" xml:space="preserve">
<g>
	<path d="M363.913,355.558c-19.986,0-36.246,16.769-36.246,37.38c0,20.594,16.26,37.348,36.246,37.348
		c19.995,0,36.262-16.754,36.262-37.348C400.175,372.326,383.908,355.558,363.913,355.558z M363.913,423.285
		c-16.126,0-29.246-13.614-29.246-30.348c0-16.752,13.12-30.38,29.246-30.38c16.135,0,29.262,13.628,29.262,30.38
		C393.175,409.671,380.048,423.285,363.913,423.285z"/>
	<path d="M258.685,352.979c-19.986,0-36.246,16.762-36.246,37.365c0,20.583,16.26,37.329,36.246,37.329
		c20.004,0,36.278-16.746,36.278-37.329C294.962,369.74,278.688,352.979,258.685,352.979z M258.685,420.673
		c-16.126,0-29.246-13.605-29.246-30.329c0-16.743,13.12-30.365,29.246-30.365c16.144,0,29.278,13.622,29.278,30.365
		C287.962,407.067,274.829,420.673,258.685,420.673z"/>
	<path d="M153.457,350.385c-19.995,0-36.262,16.769-36.262,37.38c0,20.594,16.267,37.348,36.262,37.348
		c20.003,0,36.277-16.754,36.277-37.348C189.734,367.153,173.46,350.385,153.457,350.385z M153.457,418.112
		c-16.135,0-29.262-13.614-29.262-30.348c0-16.752,13.127-30.38,29.262-30.38c16.144,0,29.277,13.628,29.277,30.38
		C182.734,404.498,169.601,418.112,153.457,418.112z"/>
	<path d="M256,9.568C120.117,9.568,9.568,120.117,9.568,256S120.117,502.432,256,502.432S502.432,391.883,502.432,256
		S391.883,9.568,256,9.568z M428,422.383c-43.558,45.014-104.563,73.049-172,73.049c-71.673,0-136.083-31.664-180-81.729v-222.64
		C76,153.025,102.721,136,129.204,136h253.561C411.089,136,428,155.089,428,187.062V422.383z M382.764,129H129.204
		c-16.023,0-30.812,5.52-41.644,15.542C75.418,155.777,69,171.864,69,191.062v214.282C36.21,364.37,16.568,312.439,16.568,256
		C16.568,123.977,123.977,16.568,256,16.568S495.432,123.977,495.432,256c0,60.891-22.86,116.533-60.432,158.829V187.062
		C435,151.248,414.984,129,382.764,129z"/>
	<path d="M112,335h289V171H112V335z M119,178h275v150H119V178z"/>
</g>
</svg>
