<?xml version="1.0" encoding="utf-8"?>
<!-- Generator: Adobe Illustrator 16.0.4, SVG Export Plug-In . SVG Version: 6.00 Build 0)  -->
<!DOCTYPE svg PUBLIC "-//W3C//DTD SVG 1.1//EN" "http://www.w3.org/Graphics/SVG/1.1/DTD/svg11.dtd">
<svg version="1.1" id="Layer_1" xmlns="http://www.w3.org/2000/svg" xmlns:xlink="http://www.w3.org/1999/xlink" x="0px" y="0px"
	 width="512px" height="512px" viewBox="0 0 512 512" enable-background="new 0 0 512 512" xml:space="preserve">
<g>
	<path d="M363.913,359.058c-18.081,0-32.746,15.206-32.746,33.88c0,18.675,14.665,33.848,32.746,33.848s32.762-15.192,32.762-33.848
		C396.675,374.264,382.01,359.058,363.913,359.058z"/>
	<path d="M258.685,356.479c-18.064,0-32.746,15.173-32.746,33.865c0,18.655,14.712,33.829,32.746,33.829
		c18.065,0,32.778-15.174,32.778-33.829C291.462,371.651,276.75,356.479,258.685,356.479z"/>
	<path d="M153.457,353.885c-18.081,0-32.762,15.206-32.762,33.88c0,18.675,14.696,33.848,32.762,33.848
		c18.081,0,32.777-15.173,32.777-33.848C186.234,369.091,171.538,353.885,153.457,353.885z"/>
	<path d="M256,13.068C122.062,13.068,13.068,122.087,13.068,256c0,133.917,108.993,242.932,242.932,242.932
		S498.932,389.965,498.932,256C498.932,122.087,389.938,13.068,256,13.068z M255.5,487.01c-72.362,0-137.5-33.331-179.5-85.419
		V182.062C76,151.942,100.097,129,129.204,129h253.561C411.888,129,435,151.942,435,182.062V401.59
		C392,453.679,327.862,487.01,255.5,487.01z"/>
	<rect x="119" y="171" width="282" height="157"/>
</g>
</svg>
