<?xml version="1.0" encoding="utf-8"?>
<!-- Generator: Adobe Illustrator 16.0.4, SVG Export Plug-In . SVG Version: 6.00 Build 0)  -->
<!DOCTYPE svg PUBLIC "-//W3C//DTD SVG 1.1//EN" "http://www.w3.org/Graphics/SVG/1.1/DTD/svg11.dtd">
<svg version="1.1" id="Layer_1" xmlns="http://www.w3.org/2000/svg" xmlns:xlink="http://www.w3.org/1999/xlink" x="0px" y="0px"
	 width="512px" height="512px" viewBox="0 0 512 512" enable-background="new 0 0 512 512" xml:space="preserve">
<g display="none">
	<rect x="18.096" y="91.5" display="inline" width="23" height="328"/>
	<path display="inline" d="M329.629,92.644c-90.581,0-164.275,73.057-164.275,162.856s73.694,162.856,164.275,162.856
		c90.582,0,164.275-73.059,164.275-162.856S420.211,92.644,329.629,92.644z M329.629,396.046
		c-78.279,0-141.966-63.049-141.966-140.546s63.687-140.546,141.966-140.546c78.281,0,141.967,63.049,141.967,140.546
		S407.91,396.046,329.629,396.046z"/>
	<polygon display="inline" points="189.636,91.5 41.03,420.5 64.937,420.5 213.54,91.5 	"/>
</g>
<rect x="26.596" y="100" width="6" height="311"/>
<path d="M329.629,101.144c-85.895,0-155.775,69.244-155.775,154.356s69.88,154.356,155.775,154.356S485.404,340.612,485.404,255.5
	S415.523,101.144,329.629,101.144z M329.629,404.546c-82.967,0-150.466-66.861-150.466-149.046
	c0-82.184,67.499-149.046,150.466-149.046c82.968,0,150.467,66.862,150.467,149.046
	C480.096,337.685,412.597,404.546,329.629,404.546z"/>
<polygon points="195.124,100 54.196,412 59.449,412 200.374,100 "/>
<g display="none">
	<path display="inline" d="M33.798,98.214v316h-11v-316H33.798 M39.798,92.214h-23v328h23V92.214L39.798,92.214z"/>
	<path display="inline" d="M330.927,96.786c87.273,0,158.275,70.365,158.275,156.854c0,86.491-71.002,156.857-158.275,156.857
		c-87.273,0-158.275-70.366-158.275-156.857C172.652,167.152,243.653,96.786,330.927,96.786 M330.927,400.188
		c81.589,0,147.967-65.739,147.967-146.545c0-80.805-66.378-146.545-147.967-146.545c-81.588,0-147.965,65.74-147.965,146.545
		C182.962,334.448,249.339,400.188,330.927,400.188 M330.927,90.786c-90.582,0-164.275,73.057-164.275,162.854
		c0,89.801,73.693,162.857,164.275,162.857c90.582,0,164.275-73.058,164.275-162.857C495.202,163.843,421.509,90.786,330.927,90.786
		L330.927,90.786z M330.927,394.188c-78.279,0-141.965-63.049-141.965-140.545c0-77.496,63.686-140.545,141.965-140.545
		c78.281,0,141.967,63.049,141.967,140.545C472.894,331.141,409.208,394.188,330.927,394.188L330.927,394.188z"/>
	<path display="inline" d="M205.545,98.214l-143.185,317H51.621l143.185-317h10.992 M214.839,92.214h-23.906l-148.606,329h23.906
		L214.839,92.214L214.839,92.214z"/>
</g>
</svg>
