<?xml version="1.0" encoding="utf-8"?>
<!-- Generator: Adobe Illustrator 16.0.4, SVG Export Plug-In . SVG Version: 6.00 Build 0)  -->
<!DOCTYPE svg PUBLIC "-//W3C//DTD SVG 1.1//EN" "http://www.w3.org/Graphics/SVG/1.1/DTD/svg11.dtd">
<svg version="1.1" id="Layer_1" xmlns="http://www.w3.org/2000/svg" xmlns:xlink="http://www.w3.org/1999/xlink" x="0px" y="0px"
	 width="512px" height="512px" viewBox="0 0 512 512" enable-background="new 0 0 512 512" xml:space="preserve">
<g id="Layer_3_1_">
	<g>
		<path d="M413.549,183.969H98.443c-3.809,0-7.023,2.298-7.023,5.021v156.263c0,2.723,3.213,5.034,7.023,5.034h315.105
			c3.809,0,7.031-2.312,7.031-5.034V188.99C420.58,186.268,417.357,183.969,413.549,183.969z"/>
		<path d="M413.549,183.969H98.443c-3.809,0-7.023,2.298-7.023,5.021v156.263c0,2.723,3.213,5.034,7.023,5.034h315.105
			c3.809,0,7.031-2.312,7.031-5.034V188.99C420.58,186.268,417.357,183.969,413.549,183.969z"/>
		<path d="M452.529,117.795H321.205l-24.348-18.391c-2.828-2.129-8.025-3.866-11.568-3.866h-58.576
			c-3.545,0-8.754,1.736-11.568,3.866l-24.348,18.391H59.471c-15.1,0-27.467,12.368-27.467,27.467v243.732
			c0,15.099,12.367,27.467,27.467,27.467h393.059c15.1,0,27.467-12.368,27.467-27.467V145.263
			C479.996,130.164,467.629,117.795,452.529,117.795z M455.426,383.854c0,5.088-4.131,9.232-9.213,9.232H65.773
			c-5.076,0-9.199-4.145-9.199-9.232V150.402c0-5.102,4.123-9.247,9.199-9.247h380.439c5.082,0,9.211,4.145,9.211,9.247v233.452
			H455.426z"/>
	</g>
</g>
</svg>
