<?xml version="1.0" encoding="utf-8"?>
<!-- Generator: Adobe Illustrator 16.0.4, SVG Export Plug-In . SVG Version: 6.00 Build 0)  -->
<!DOCTYPE svg PUBLIC "-//W3C//DTD SVG 1.1//EN" "http://www.w3.org/Graphics/SVG/1.1/DTD/svg11.dtd">
<svg version="1.1" id="Layer_1" xmlns="http://www.w3.org/2000/svg" xmlns:xlink="http://www.w3.org/1999/xlink" x="0px" y="0px"
	 width="512px" height="512px" viewBox="0 0 512 512" enable-background="new 0 0 512 512" xml:space="preserve">
<g id="Layer_3_10_">
	<g>
		<g>
			<path d="M413.549,353.287H98.443c-5.527,0-10.023-3.604-10.023-8.035V188.99c0-4.423,4.496-8.021,10.023-8.021h315.105
				c5.531,0,10.031,3.599,10.031,8.021v156.262C423.58,349.683,419.08,353.287,413.549,353.287z M98.443,186.969
				c-2.457,0-4.023,1.327-4.023,2.021v156.262c0,0.715,1.659,2.035,4.023,2.035h315.105c2.369,0,4.031-1.32,4.031-2.035V188.99
				c0-0.71-1.662-2.021-4.031-2.021H98.443z"/>
		</g>
		<g>
			<path d="M413.549,353.287H98.443c-5.527,0-10.023-3.604-10.023-8.035V188.99c0-4.423,4.496-8.021,10.023-8.021h315.105
				c5.531,0,10.031,3.599,10.031,8.021v156.262C423.58,349.683,419.08,353.287,413.549,353.287z M98.443,186.969
				c-2.457,0-4.023,1.327-4.023,2.021v156.262c0,0.715,1.659,2.035,4.023,2.035h315.105c2.369,0,4.031-1.32,4.031-2.035V188.99
				c0-0.71-1.662-2.021-4.031-2.021H98.443z"/>
		</g>
		<g>
			<path d="M452.529,419.461H59.471c-16.8,0-30.467-13.667-30.467-30.467V145.263c0-16.8,13.667-30.468,30.467-30.468h130.32
				l23.545-17.784c3.312-2.507,9.189-4.472,13.377-4.472h58.576c4.17,0,10.044,1.963,13.373,4.469l23.549,17.787h130.318
				c16.8,0,30.467,13.668,30.467,30.468v243.731C482.996,405.794,469.329,419.461,452.529,419.461z M59.471,120.795
				c-13.491,0-24.467,10.977-24.467,24.468v243.731c0,13.491,10.976,24.467,24.467,24.467h393.059
				c13.491,0,24.467-10.976,24.467-24.467V145.263c0-13.491-10.976-24.468-24.467-24.468h-132.33l-25.15-18.997
				c-2.304-1.734-6.867-3.259-9.76-3.259h-58.576c-2.905,0-7.465,1.522-9.758,3.258l-25.152,18.998H59.471z M446.213,396.086H65.773
				c-6.727,0-12.199-5.487-12.199-12.232V150.402c0-6.753,5.473-12.247,12.199-12.247h380.439c6.733,0,12.211,5.494,12.211,12.247
				v233.451c0.001,3.261-1.269,6.33-3.575,8.643C452.54,394.812,449.474,396.086,446.213,396.086z M65.773,144.155
				c-3.418,0-6.199,2.803-6.199,6.247v233.451c0,3.437,2.781,6.232,6.199,6.232h380.439c3.426,0,6.213-2.796,6.213-6.232
				l-0.002-233.451c0-3.444-2.786-6.247-6.211-6.247H65.773z"/>
		</g>
	</g>
</g>
</svg>
