<?xml version="1.0" encoding="utf-8"?>
<!-- Generator: Adobe Illustrator 16.0.4, SVG Export Plug-In . SVG Version: 6.00 Build 0)  -->
<!DOCTYPE svg PUBLIC "-//W3C//DTD SVG 1.1//EN" "http://www.w3.org/Graphics/SVG/1.1/DTD/svg11.dtd">
<svg version="1.1" id="Layer_1" xmlns="http://www.w3.org/2000/svg" xmlns:xlink="http://www.w3.org/1999/xlink" x="0px" y="0px"
	 width="512px" height="512px" viewBox="0 0 512 512" enable-background="new 0 0 512 512" xml:space="preserve">
<path d="M405.806,460.745c-1.646-1.645-3.99-2.454-6.449-2.195l-5.432,0.56l-2.473-12.398l-205.6-205.601l5.165-5.166l-7.02-7.02
	l3.784-3.784l-69.291-69.291c-2.565,1.817-7.628,5.84-15.947,14.16c-7.512,7.513-11.155,11.965-12.919,14.489l69.399,69.398
	l3.789-3.788l7.018,7.019l4.847-4.848l4.243,4.244l201.289,201.284l12.695,2.038l-0.62,5.673c-0.26,2.375,0.579,4.725,2.302,6.447
	c1.489,1.489,3.474,2.31,5.588,2.31c2.126,0,4.123-0.826,5.622-2.326c1.495-1.495,2.319-3.485,2.32-5.605
	S407.297,462.235,405.806,460.745z"/>
<path d="M407.034,419.007c2.52,6.088,11.491,15.126,16.684,19.19c0.591-6.905-0.068-20.436-2.06-25.241L312.144,148.422
	l-2.288-5.542l6.52-2.699l-3.79-9.153l4.949-2.049l-37.482-90.537c-3.064,0.695-9.278,2.471-20.151,6.975
	c-9.821,4.065-14.889,6.782-17.482,8.438l37.542,90.683l4.945-2.048l3.79,9.151l6.526-2.703l37.229,89.919
	C363.759,314.479,404.871,413.784,407.034,419.007z"/>
<path display="none" d="M412.172,454.385c-2.927-2.928-6.797-4.632-10.979-4.854l-1.447-7.253L198.579,241.11l5.166-5.166
	l-7.019-7.019l3.784-3.784l-80.707-80.708l-4.361,2.649c-2.563,1.555-8.472,5.776-19.26,16.563
	c-7.925,7.926-13.102,13.972-15.389,17.97l-2.467,4.311l80.7,80.7l3.788-3.789l7.018,7.019l4.847-4.846l199.736,199.736l1.488,1.487
	l7.364,1.184c0.251,4.076,1.983,7.944,4.954,10.916c3.19,3.188,7.436,4.944,11.952,4.944c4.531,0,8.787-1.764,11.987-4.962
	c3.194-3.193,4.954-7.442,4.956-11.965C417.12,461.826,415.363,457.576,412.172,454.385z"/>
<path display="none" d="M429.974,409.511L321.609,147.756l6.526-2.701l-3.791-9.153l4.948-2.049L285.636,28.4l-5.04,0.776
	c-2.965,0.454-10.041,2.089-24.139,7.924c-10.35,4.285-17.448,7.888-21.098,10.709l-3.928,3.04l43.657,105.445l4.947-2.047
	l3.79,9.15l6.526-2.701L398.718,422.45c3.857,9.316,18.329,23.338,24.227,25.881l6.272,2.705l2.393-6.399
	C433.825,438.699,433.246,417.41,429.974,409.511z"/>
</svg>
