<?xml version="1.0" encoding="utf-8"?>
<!-- Generator: Adobe Illustrator 16.0.4, SVG Export Plug-In . SVG Version: 6.00 Build 0)  -->
<!DOCTYPE svg PUBLIC "-//W3C//DTD SVG 1.1//EN" "http://www.w3.org/Graphics/SVG/1.1/DTD/svg11.dtd">
<svg version="1.1" id="Layer_1" xmlns="http://www.w3.org/2000/svg" xmlns:xlink="http://www.w3.org/1999/xlink" x="0px" y="0px"
	 width="512px" height="512px" viewBox="0 0 512 512" enable-background="new 0 0 512 512" xml:space="preserve">
<g display="none">
	<path display="inline" d="M118.608,154.552l9.594,9.594l2.091,2.091l50.047,50.047l8.855,8.855l-0.248,0.249l-3.536,3.536
		l3.536,3.536l3.484,3.484l-1.63,1.63l-3.535,3.536l3.535,3.535l201.572,201.573l1.465,7.342l0.89,4.462l4.526-0.467
		c0.331-0.034,0.665-0.052,0.993-0.052c2.405,0,4.631,0.9,6.266,2.535c1.68,1.68,2.604,3.92,2.603,6.306
		c-0.001,2.387-0.929,4.629-2.613,6.312c-1.688,1.689-3.936,2.619-6.329,2.619c-2.382,0-4.617-0.924-6.295-2.602
		c-1.938-1.938-2.882-4.586-2.589-7.263l0.517-4.727l-4.694-0.754l-7.383-1.186L178.213,257.23l-3.536-3.536l-3.536,3.536
		l-1.311,1.311l-3.483-3.483l-3.535-3.536l-3.536,3.536l-0.252,0.253l-2.441-2.441h0.001l-8.536-8.536l-47.988-47.987L88.333,184.62
		c1.536-2.338,5.134-6.947,13.504-15.318C110.92,160.218,116.16,156.203,118.608,154.552 M119.346,148.219l-2.349,1.426
		c-2.45,1.488-8.136,5.561-18.695,16.121c-9.635,9.635-13.425,14.747-14.907,17.338l-1.328,2.321l14.457,14.457l47.988,47.987
		h-0.001l14.513,14.512l3.788-3.788l7.019,7.021l4.847-4.848l201.857,201.857l0.801,0.802l8.982,1.442
		c-0.454,4.151,1.012,8.329,4.023,11.342c2.622,2.622,6.113,4.066,9.831,4.066c3.729,0,7.233-1.451,9.865-4.084
		c2.627-2.627,4.075-6.122,4.077-9.845s-1.442-7.219-4.067-9.844c-2.57-2.57-6.08-4-9.801-4c-0.499,0-1.001,0.026-1.506,0.078
		l-1.761-8.827L194.337,241.109l5.165-5.166l-7.019-7.019l3.784-3.784l-12.391-12.391l-50.047-50.047l-2.091-2.091L119.346,148.219
		L119.346,148.219z"/>
</g>
<g display="none">
	<path display="inline" d="M280.656,37.29l5.189,12.537l1.28,3.088l0,0l25.778,62.262l5.938,14.345l-0.329,0.136l-4.62,1.913
		l1.914,4.62l1.876,4.532l-1.905,0.789l-4.616,1.911l1.907,4.618l0.581,1.408l108.933,263.124c2.252,5.436,2.83,21.332,1.935,27.463
		c-4.858-3.378-15.572-13.797-18.407-20.646c-3.008-7.265-81.368-196.539-103.89-250.938l-5.625-13.587l-1.913-4.62l-4.62,1.913
		l-1.907,0.79l-1.877-4.532l-1.913-4.619l-4.619,1.913l-0.326,0.135l-4.791-11.571l-27.108-65.48l-2.653-6.405l-3.69-8.914
		c2.313-1.572,7.401-4.453,18.339-8.981C271.385,39.579,277.764,37.877,280.656,37.29 M283.764,31.723l-2.715,0.417
		c-2.831,0.435-9.642,2.018-23.445,7.731c-12.587,5.211-18.046,8.483-20.409,10.311l-2.115,1.636l7.819,18.887l0.001-0.001
		l27.108,65.48h0.001l6.703,16.191l4.946-2.048l3.79,9.151l6.526-2.702l5.625,13.587c22.521,54.399,100.882,243.674,103.89,250.939
		c3.641,8.795,17.821,22.194,22.641,24.273l3.379,1.457l1.287-3.446c1.967-5.265,1.344-25.835-1.595-32.928L318.27,147.536
		l-0.58-1.404l6.526-2.702l-3.79-9.152l4.948-2.049l-7.85-18.964h-0.001l-27.056-65.35h-0.002L283.764,31.723L283.764,31.723z"/>
</g>
<path d="M412.172,454.385c-2.927-2.928-6.797-4.632-10.979-4.855l-1.447-7.253L198.579,241.11l5.166-5.166l-7.019-7.019l3.784-3.784
	l-80.707-80.708l-4.361,2.649c-2.563,1.555-8.472,5.776-19.26,16.563c-7.925,7.926-13.102,13.972-15.389,17.97l-2.467,4.311
	l80.7,80.7l3.788-3.789l7.018,7.019l4.847-4.846l199.736,199.736l1.488,1.487l7.365,1.184c0.251,4.076,1.983,7.944,4.954,10.916
	c3.19,3.188,7.435,4.944,11.952,4.944c4.531,0,8.787-1.763,11.987-4.962c3.194-3.193,4.954-7.442,4.956-11.964
	C417.12,461.826,415.363,457.576,412.172,454.385z"/>
<path d="M429.974,409.511L321.609,147.756l6.527-2.701l-3.791-9.153l4.948-2.049L285.636,28.4l-5.04,0.776
	c-2.965,0.454-10.041,2.089-24.139,7.924c-10.35,4.285-17.448,7.888-21.098,10.709l-3.928,3.04l43.657,105.445l4.947-2.047
	l3.79,9.15l6.526-2.701L398.718,422.45c3.857,9.317,18.329,23.338,24.226,25.881l6.273,2.705l2.392-6.399
	C433.825,438.699,433.246,417.41,429.974,409.511z"/>
</svg>
