<?xml version="1.0" encoding="utf-8"?>
<!-- Generator: Adobe Illustrator 16.0.4, SVG Export Plug-In . SVG Version: 6.00 Build 0)  -->
<!DOCTYPE svg PUBLIC "-//W3C//DTD SVG 1.1//EN" "http://www.w3.org/Graphics/SVG/1.1/DTD/svg11.dtd">
<svg version="1.1" id="Layer_1" xmlns="http://www.w3.org/2000/svg" xmlns:xlink="http://www.w3.org/1999/xlink" x="0px" y="0px"
	 width="512px" height="512px" viewBox="0 0 512 512" enable-background="new 0 0 512 512" xml:space="preserve">
<g id="Layer_3_11_">
	<g>
		<g>
			<path d="M256,498.932c-64.89,0-125.895-25.27-171.779-71.153S13.068,320.89,13.068,256S38.337,130.105,84.221,84.222
				S191.11,13.068,256,13.068s125.895,25.27,171.779,71.153S498.932,191.11,498.932,256s-25.269,125.895-71.153,171.778
				S320.89,498.932,256,498.932z M256,19.068c-63.287,0-122.786,24.646-167.536,69.396C43.713,133.215,19.068,192.713,19.068,256
				s24.645,122.785,69.396,167.536c44.75,44.75,104.25,69.396,167.536,69.396s122.786-24.646,167.536-69.396
				c44.75-44.751,69.396-104.249,69.396-167.536s-24.645-122.785-69.396-167.536C378.786,43.714,319.287,19.068,256,19.068z
				 M165.477,437.09V74.91L404.155,256L165.477,437.09z M171.477,86.994v338.012L394.228,256L171.477,86.994z"/>
		</g>
	</g>
</g>
</svg>
