<?xml version="1.0" encoding="utf-8"?>
<!-- Generator: Adobe Illustrator 17.0.2, SVG Export Plug-In . SVG Version: 6.00 Build 0)  -->
<!DOCTYPE svg PUBLIC "-//W3C//DTD SVG 1.1//EN" "http://www.w3.org/Graphics/SVG/1.1/DTD/svg11.dtd">
<svg version="1.1" xmlns="http://www.w3.org/2000/svg" xmlns:xlink="http://www.w3.org/1999/xlink" x="0px" y="0px" width="512px"
	 height="512px" viewBox="0 0 512 512" enable-background="new 0 0 512 512" xml:space="preserve">
<g id="Layer_1">
</g>
<g id="Layer_2">
</g>
<g id="Layer_3">
	<g>
		<g>
			<path d="M269.686,41.54l103.553,59.719l-103.553,59.719v-43.311v-4.991l-4.991-0.009c-3.159-0.006-4.557-0.053-5.154-0.086
				c-0.864-0.273-1.633-0.273-2.071-0.273c-22.13,0-43.703,4.338-64.119,12.894c-19.739,8.272-37.511,20.094-52.822,35.136
				c-15.358,15.088-27.43,32.623-35.88,52.117c-8.784,20.263-13.238,41.741-13.238,63.837c0,90.386,73.622,163.92,164.116,163.92
				c21.983,0,43.488-4.651,63.917-13.823c19.373-8.698,36.908-21.037,52.12-36.676c29.314-30.137,46.635-69.618,47.992-109.042
				h33.915c-1.198,53.388-21.565,102.104-57.659,137.63c-36.565,35.991-86.213,55.812-139.796,55.812
				c-52.891,0-102.533-20.524-139.784-57.791c-37.247-37.264-57.76-86.919-57.76-139.818c0-109.127,89.163-197.92,198.807-198.017
				c1.131,0.188,3.027,0.205,7.379,0.229l5.027,0.027v-5.027V41.54 M264.686,32.885v40.832c-9.126-0.049-5.453-0.229-7.216-0.229
				c-112.129,0-203.997,90.888-203.997,203.017s90.415,202.609,202.544,202.609s202.511-84.848,202.511-203.442h-43.885v0.016
				c0,82.072-71.395,159.524-159.116,159.524S96.411,364.047,96.411,276.294c0-87.721,73.305-158.985,161.059-158.985
				c1.763,0-1.894,0.343,7.216,0.359v51.967l118.561-68.374L264.686,32.885L264.686,32.885z"/>
		</g>
		<g>
			<g>
				<path d="M255.527,238.143c21.162,0,38.379,17.217,38.379,38.379s-17.217,38.379-38.379,38.379s-38.379-17.217-38.379-38.379
					S234.364,238.143,255.527,238.143 M255.527,233.143c-23.958,0-43.379,19.421-43.379,43.379s19.421,43.379,43.379,43.379
					s43.379-19.421,43.379-43.379S279.484,233.143,255.527,233.143L255.527,233.143z"/>
			</g>
		</g>
	</g>
</g>
</svg>
