<?xml version="1.0" encoding="utf-8"?>
<!-- Generator: Adobe Illustrator 17.0.2, SVG Export Plug-In . SVG Version: 6.00 Build 0)  -->
<!DOCTYPE svg PUBLIC "-//W3C//DTD SVG 1.1//EN" "http://www.w3.org/Graphics/SVG/1.1/DTD/svg11.dtd">
<svg version="1.1" xmlns="http://www.w3.org/2000/svg" xmlns:xlink="http://www.w3.org/1999/xlink" x="0px" y="0px" width="512px"
	 height="512px" viewBox="0 0 512 512" enable-background="new 0 0 512 512" xml:space="preserve">
<g id="Layer_1">
</g>
<g id="Layer_2">
</g>
<g id="Layer_3">
	<g>
		<g>
			<path d="M305.734,66.094c-3.468-4.434-8.205-6.918-13.132-6.918h-73.203c-4.909,0-9.665,2.502-13.152,6.955
				c-3.487,4.454-5.42,10.442-5.42,16.696v50.178c0,6.254,1.914,12.336,5.42,16.771c3.487,4.396,8.225,6.88,13.152,6.88h73.203
				c4.909,0,9.646-2.521,13.152-6.918c3.468-4.453,5.438-10.479,5.438-16.733V82.827C311.172,76.573,309.259,70.491,305.734,66.094z
				"/>
		</g>
		<g>
			<path d="M136.757,214.187c-3.487-4.396-8.186-6.917-13.151-6.917H50.403c-4.907,0-9.645,2.52-13.151,6.917
				c-3.449,4.491-5.42,10.48-5.42,16.733v50.18c0,6.254,1.971,12.375,5.438,16.771c3.468,4.396,8.205,6.917,13.132,6.917h73.204
				c4.908-0.038,9.663-2.502,13.151-6.955c3.487-4.453,5.438-10.479,5.438-16.733v-50.18
				C142.196,224.667,140.225,218.621,136.757,214.187z"/>
		</g>
		<g>
			<path d="M136.757,66.094c-3.487-4.434-8.186-6.918-13.151-6.918H50.403c-4.907,0-9.645,2.521-13.151,6.955
				c-3.449,4.454-5.42,10.442-5.42,16.696v50.178c0,6.254,1.951,12.336,5.438,16.771c3.468,4.396,8.205,6.88,13.132,6.88h73.204
				c4.908,0,9.645-2.521,13.151-6.918c3.487-4.453,5.438-10.479,5.438-16.733V82.827C142.196,76.573,140.225,70.491,136.757,66.094z
				"/>
		</g>
		<g>
			<path d="M474.71,66.094c-3.449-4.434-8.186-6.918-13.112-6.918h-73.242c-4.869,0-9.663,2.502-13.132,6.955
				c-3.468,4.454-5.438,10.442-5.438,16.696v50.178c0.018,6.254,1.952,12.336,5.477,16.771c3.431,4.396,8.168,6.88,13.094,6.88
				h73.242c4.869,0,9.645-2.521,13.112-6.918c3.487-4.453,5.477-10.479,5.458-16.733V82.827
				C480.168,76.573,478.215,70.491,474.71,66.094z"/>
		</g>
		<g>
			<path d="M474.71,214.187c-3.449-4.396-8.186-6.917-13.112-6.917h-73.242c-4.869,0-9.645,2.52-13.132,6.917
				c-3.468,4.491-5.438,10.48-5.438,16.733v50.18c0.018,6.254,1.952,12.375,5.477,16.771c3.431,4.396,8.168,6.917,13.094,6.917
				h73.242c4.869-0.038,9.645-2.52,13.112-6.955c3.487-4.453,5.477-10.479,5.458-16.733v-50.18
				C480.168,224.667,478.215,218.621,474.71,214.187z"/>
		</g>
		<g>
			<path d="M305.734,214.187c-3.468-4.396-8.205-6.917-13.132-6.917h-73.203c-4.909,0-9.646,2.52-13.152,6.917
				c-3.487,4.491-5.42,10.48-5.42,16.733v50.18c0,6.254,1.934,12.375,5.42,16.771c3.487,4.396,8.225,6.917,13.152,6.917h73.203
				c4.909-0.038,9.646-2.52,13.152-6.955c3.468-4.453,5.438-10.479,5.438-16.733v-50.18
				C311.172,224.667,309.259,218.621,305.734,214.187z"/>
		</g>
		<g>
			<path d="M136.757,362.262c-3.487-4.434-8.186-6.917-13.151-6.917H50.403c-4.907,0-9.645,2.52-13.151,6.917
				c-3.449,4.453-5.42,10.479-5.42,16.733v50.18c0,6.254,1.951,12.298,5.438,16.771c3.468,4.396,8.205,6.878,13.132,6.878h73.204
				c4.908,0,9.645-2.52,13.151-6.878c3.487-4.491,5.438-10.517,5.438-16.771v-50.18
				C142.196,372.741,140.225,366.658,136.757,362.262z"/>
		</g>
		<g>
			<path d="M474.71,362.262c-3.449-4.434-8.186-6.917-13.112-6.917h-73.242c-4.869,0-9.645,2.52-13.132,6.917
				c-3.468,4.453-5.438,10.479-5.438,16.733v50.18c0.018,6.254,1.952,12.298,5.477,16.771c3.431,4.396,8.168,6.878,13.094,6.878
				h73.242c4.869,0,9.645-2.52,13.112-6.878c3.487-4.491,5.477-10.517,5.458-16.771v-50.18
				C480.168,372.741,478.215,366.658,474.71,362.262z"/>
		</g>
		<g>
			<path d="M305.734,362.262c-3.468-4.434-8.205-6.917-13.132-6.917h-73.203c-4.909,0-9.646,2.52-13.152,6.917
				c-3.487,4.453-5.42,10.479-5.42,16.733v50.18c0,6.254,1.914,12.298,5.42,16.771c3.487,4.396,8.225,6.878,13.152,6.878h73.203
				c4.909,0,9.646-2.52,13.152-6.878c3.468-4.491,5.438-10.517,5.438-16.771v-50.18
				C311.172,372.741,309.259,366.658,305.734,362.262z"/>
		</g>
	</g>
</g>
</svg>
