<?xml version="1.0" encoding="utf-8"?>
<!-- Generator: Adobe Illustrator 17.0.2, SVG Export Plug-In . SVG Version: 6.00 Build 0)  -->
<!DOCTYPE svg PUBLIC "-//W3C//DTD SVG 1.1//EN" "http://www.w3.org/Graphics/SVG/1.1/DTD/svg11.dtd">
<svg version="1.1" xmlns="http://www.w3.org/2000/svg" xmlns:xlink="http://www.w3.org/1999/xlink" x="0px" y="0px" width="512px"
	 height="512px" viewBox="0 0 512 512" enable-background="new 0 0 512 512" xml:space="preserve">
<g id="Layer_1">
</g>
<g id="Layer_2">
</g>
<g id="Layer_3">
	<g>
		<g>
			<path d="M292.601,64.177c3.408,0,6.673,1.775,9.193,4.998l0.019,0.024l0.019,0.024c2.754,3.434,4.342,8.398,4.359,13.605v50.178
				c0,5.093-1.591,10.062-4.366,13.638c-2.549,3.186-5.91,5.013-9.225,5.013h-73.203c-3.404,0-6.684-1.771-9.229-4.98
				c-2.76-3.491-4.342-8.473-4.342-13.67V82.827c0-5.115,1.588-10.077,4.356-13.613c2.507-3.201,5.866-5.037,9.215-5.037H292.601
				 M292.601,59.177h-73.203c-4.909,0-9.665,2.502-13.152,6.955c-3.487,4.454-5.42,10.442-5.42,16.696v50.178
				c0,6.254,1.914,12.336,5.42,16.771c3.487,4.396,8.225,6.88,13.152,6.88h73.203c4.909,0,9.646-2.521,13.152-6.918
				c3.467-4.453,5.438-10.479,5.438-16.733V82.827c-0.02-6.254-1.933-12.336-5.458-16.733
				C302.266,61.66,297.529,59.177,292.601,59.177L292.601,59.177z"/>
		</g>
		<g>
			<path d="M123.607,212.27c3.385,0,6.664,1.784,9.212,4.996c2.782,3.557,4.377,8.534,4.377,13.653v50.18
				c0,5.124-1.595,10.1-4.375,13.65c-2.523,3.222-5.809,5.011-9.214,5.038H50.403c-3.338,0-6.694-1.827-9.206-5.013
				c-2.773-3.516-4.364-8.501-4.364-13.674v-50.18c0-5.052,1.588-10.025,4.357-13.651c2.548-3.177,5.903-4.998,9.213-4.998H123.607
				 M123.607,207.27H50.403c-4.908,0-9.645,2.52-13.151,6.917c-3.449,4.491-5.42,10.48-5.42,16.733v50.18
				c0,6.254,1.971,12.375,5.438,16.771c3.468,4.396,8.205,6.917,13.132,6.917h73.204c4.908-0.038,9.664-2.502,13.151-6.955
				s5.438-10.479,5.438-16.733v-50.18c0-6.253-1.971-12.298-5.438-16.733C133.27,209.791,128.571,207.27,123.607,207.27
				L123.607,207.27z"/>
		</g>
		<g>
			<path d="M123.607,64.177c3.406,0,6.681,1.779,9.225,5.014c2.773,3.516,4.364,8.487,4.364,13.636v50.178
				c0,5.124-1.595,10.1-4.348,13.615c-2.552,3.2-5.92,5.035-9.241,5.035H50.403c-3.406,0-6.675-1.767-9.202-4.97
				c-2.776-3.531-4.369-8.517-4.369-13.68V82.827c0-5.066,1.588-10.027,4.357-13.614c2.576-3.248,5.847-5.036,9.213-5.036H123.607
				 M123.607,59.177H50.403c-4.908,0-9.645,2.521-13.151,6.955c-3.449,4.454-5.42,10.442-5.42,16.696v50.178
				c0,6.254,1.951,12.336,5.438,16.771c3.468,4.396,8.205,6.88,13.132,6.88h73.204c4.908,0,9.645-2.521,13.151-6.918
				c3.487-4.453,5.438-10.479,5.438-16.733V82.827c0-6.254-1.971-12.336-5.438-16.733C133.27,61.66,128.571,59.177,123.607,59.177
				L123.607,59.177z"/>
		</g>
		<g>
			<path d="M461.597,64.177c3.409,0,6.664,1.771,9.166,4.987l0.019,0.024l0.019,0.024c2.775,3.481,4.367,8.443,4.367,13.615
				l0,50.193c0.015,5.08-1.587,10.05-4.384,13.622c-2.513,3.187-5.862,5.014-9.187,5.014h-73.242c-3.359,0-6.695-1.806-9.18-4.99
				c-2.775-3.492-4.376-8.476-4.391-13.66V82.827c0-5.08,1.598-10.046,4.383-13.623c2.489-3.195,5.837-5.027,9.188-5.027H461.597
				 M461.597,59.177h-73.242c-4.869,0-9.663,2.502-13.132,6.955c-3.468,4.454-5.438,10.442-5.438,16.696v50.178
				c0.019,6.254,1.952,12.336,5.477,16.771c3.431,4.396,8.168,6.88,13.094,6.88h73.242c4.869,0,9.645-2.521,13.112-6.918
				c3.487-4.453,5.477-10.479,5.458-16.733V82.827c0-6.254-1.952-12.336-5.458-16.733C471.261,61.66,466.523,59.177,461.597,59.177
				L461.597,59.177z"/>
		</g>
		<g>
			<path d="M461.597,212.27c3.339,0,6.684,1.823,9.19,5.017c2.784,3.521,4.38,8.49,4.38,13.632l0,50.194
				c0.015,5.08-1.587,10.05-4.397,13.638c-2.481,3.173-5.839,5.008-9.174,5.035h-73.242c-3.34,0-6.676-1.82-9.152-4.993l-0.02-0.026
				l-0.021-0.026c-2.767-3.451-4.362-8.43-4.378-13.644v-50.18c0-5.061,1.595-10.035,4.376-13.651
				c2.53-3.177,5.88-4.998,9.194-4.998H461.597 M461.597,207.27h-73.242c-4.869,0-9.645,2.52-13.132,6.917
				c-3.468,4.491-5.438,10.48-5.438,16.733v50.18c0.019,6.254,1.952,12.375,5.477,16.771c3.431,4.396,8.168,6.917,13.094,6.917
				h73.242c4.869-0.038,9.645-2.52,13.112-6.955c3.487-4.453,5.477-10.479,5.458-16.733v-50.18c0-6.253-1.952-12.298-5.458-16.733
				C471.261,209.791,466.523,207.27,461.597,207.27L461.597,207.27z"/>
		</g>
		<g>
			<path d="M292.601,212.27c3.338,0,6.694,1.827,9.218,5.028c2.762,3.474,4.356,8.445,4.372,13.621v50.18
				c0,5.104-1.598,10.083-4.361,13.632c-2.556,3.234-5.848,5.029-9.23,5.056h-73.203c-3.336,0-6.702-1.831-9.234-5.023
				c-2.757-3.476-4.338-8.457-4.338-13.664v-50.18c0-5.172,1.544-10.014,4.349-13.64c2.549-3.184,5.909-5.009,9.223-5.009H292.601
				 M292.601,207.27h-73.203c-4.909,0-9.646,2.52-13.152,6.917c-3.487,4.491-5.42,10.48-5.42,16.733v50.18
				c0,6.254,1.934,12.375,5.42,16.771c3.487,4.396,8.225,6.917,13.152,6.917h73.203c4.909-0.038,9.646-2.52,13.152-6.955
				c3.467-4.453,5.438-10.479,5.438-16.733v-50.18c-0.02-6.253-1.933-12.298-5.458-16.733
				C302.266,209.791,297.529,207.27,292.601,207.27L292.601,207.27z"/>
		</g>
		<g>
			<path d="M123.607,360.345c3.407,0,6.681,1.778,9.225,5.013c2.773,3.516,4.364,8.487,4.364,13.636v50.18
				c0,5.102-1.589,10.082-4.361,13.67c-2.559,3.165-5.92,4.979-9.228,4.979H50.403c-3.406,0-6.676-1.767-9.189-4.953
				c-2.784-3.571-4.382-8.564-4.382-13.697v-50.18c0-5.087,1.586-10.058,4.352-13.643c2.548-3.182,5.907-5.006,9.219-5.006H123.607
				 M123.607,355.345H50.403c-4.908,0-9.645,2.52-13.151,6.917c-3.449,4.453-5.42,10.479-5.42,16.733v50.18
				c0,6.254,1.951,12.298,5.438,16.771c3.468,4.396,8.205,6.878,13.132,6.878h73.204c4.908,0,9.645-2.52,13.151-6.878
				c3.487-4.491,5.438-10.517,5.438-16.771v-50.18c0-6.254-1.971-12.336-5.438-16.733
				C133.27,357.827,128.571,355.345,123.607,355.345L123.607,355.345z"/>
		</g>
		<g>
			<path d="M461.597,360.345c3.41,0,6.665,1.771,9.166,4.986l0.019,0.024l0.019,0.024c2.775,3.481,4.367,8.443,4.367,13.615
				l0,50.194c0.015,5.062-1.584,10.041-4.389,13.666c-2.522,3.158-5.867,4.969-9.182,4.969h-73.242
				c-3.359,0-6.695-1.806-9.167-4.973c-2.783-3.532-4.389-8.523-4.404-13.676v-50.18c0-5.104,1.598-10.083,4.356-13.625
				c2.532-3.193,5.891-5.024,9.215-5.024H461.597 M461.597,355.345h-73.242c-4.869,0-9.645,2.52-13.132,6.917
				c-3.468,4.453-5.438,10.479-5.438,16.733v50.18c0.019,6.254,1.952,12.298,5.477,16.771c3.431,4.396,8.168,6.878,13.094,6.878
				h73.242c4.869,0,9.645-2.52,13.112-6.878c3.487-4.491,5.477-10.517,5.458-16.771v-50.18c0-6.254-1.952-12.336-5.458-16.733
				C471.261,357.827,466.523,355.345,461.597,355.345L461.597,355.345z"/>
		</g>
		<g>
			<path d="M292.601,360.345c3.409,0,6.674,1.774,9.193,4.996l0.019,0.024l0.019,0.024c2.754,3.434,4.342,8.398,4.359,13.605v50.18
				c0,5.079-1.591,10.06-4.366,13.676c-2.559,3.161-5.918,4.974-9.225,4.974h-73.203c-3.405,0-6.684-1.771-9.217-4.963
				c-2.768-3.531-4.355-8.52-4.355-13.686v-50.18c0-5.139,1.588-10.115,4.329-13.615c2.551-3.199,5.92-5.034,9.243-5.034H292.601
				 M292.601,355.345h-73.203c-4.909,0-9.646,2.52-13.152,6.917c-3.487,4.453-5.42,10.479-5.42,16.733v50.18
				c0,6.254,1.914,12.298,5.42,16.771c3.487,4.396,8.225,6.878,13.152,6.878h73.203c4.909,0,9.646-2.52,13.152-6.878
				c3.467-4.491,5.438-10.517,5.438-16.771v-50.18c-0.02-6.254-1.933-12.336-5.458-16.733
				C302.266,357.827,297.529,355.345,292.601,355.345L292.601,355.345z"/>
		</g>
	</g>
</g>
</svg>
