<?xml version="1.0" encoding="utf-8"?>
<!-- Generator: Adobe Illustrator 17.0.2, SVG Export Plug-In . SVG Version: 6.00 Build 0)  -->
<!DOCTYPE svg PUBLIC "-//W3C//DTD SVG 1.1//EN" "http://www.w3.org/Graphics/SVG/1.1/DTD/svg11.dtd">
<svg version="1.1" xmlns="http://www.w3.org/2000/svg" xmlns:xlink="http://www.w3.org/1999/xlink" x="0px" y="0px" width="512px"
	 height="512px" viewBox="0 0 512 512" enable-background="new 0 0 512 512" xml:space="preserve">
<g id="Layer_1">
</g>
<g id="Layer_2">
</g>
<g id="Layer_3">
	<g>
		<g>
			<path d="M471.784,39.032l-24.922,95.293l-23.953-23.621l-3.527-3.478l-3.511,3.495L242.962,282.824l-6.006,5.978l8.137,2.367
				c4.402,1.28,8.031,2.403,11.422,3.533l0.055,0.018l0.035,0.011c10.676,3.386,22.775,7.225,36.908,7.225
				c24.91,0,49.875-12.448,76.321-38.055l3.65-3.535l-3.593-3.593l-17.443-17.443l53.347-53.346l53.332,53.332l-53.347,53.346
				l-15.178-15.178l-3.489-3.489l-3.535,3.442c-16.738,16.298-33.18,28.224-48.869,35.445c-13.209,6.079-26.08,9.035-39.347,9.035
				c-16.578,0-31.46-4.722-44.591-8.887l-0.049-0.016c-8.409-2.685-16.352-5.221-23.795-5.222c-4.038,0-7.602,0.73-10.896,2.232
				l-0.816,0.372l-0.636,0.632l-90.44,89.963l-2.717,2.703l1.904,3.326c10.137,17.706,7.092,40.198-7.406,54.696
				c-8.631,8.631-20.069,13.385-32.206,13.385c-12.121,0-23.539-4.743-32.151-13.355c-8.631-8.631-13.383-20.065-13.381-32.198
				c0.002-12.13,4.754-23.561,13.381-32.189c8.63-8.63,20.067-13.382,32.206-13.382c6.589,0,12.965,1.385,18.951,4.115l3.148,1.436
				l2.453-2.44l56.201-55.903l2.08-2.069l-0.791-2.825c-3.205-11.443-7.409-21.161-11.115-29.729
				c-8.159-18.925-14.604-33.873-11.758-51.769c1.969-12.382,8.928-33.236,46.466-71.215l2.63-2.661l-1.812-3.274
				c-4.649-8.402-6.516-18.27-5.259-27.785c1.305-9.871,5.764-18.859,12.897-25.991c8.496-8.496,19.83-13.174,31.914-13.174
				c12.08,0,23.411,4.679,31.907,13.174c17.604,17.604,17.61,46.24,0.015,63.836c-8.574,8.574-19.916,13.296-31.937,13.296
				c-7.143,0-14.275-1.719-20.625-4.972l-3.262-1.671l-2.575,2.608c-24.101,24.403-36.276,42.736-39.479,59.442
				c-3.054,15.93,2.521,28.849,8.423,42.528c2.116,4.903,4.75,11.005,7.164,17.456l2.716,7.259l5.494-5.466L400.844,96.025
				l3.571-3.553l-3.58-3.544L376.931,65.26L471.784,39.032 M478.818,31.899L367.28,62.741l30.037,29.739L184.09,304.635
				c-2.369-6.332-4.857-12.128-7.256-17.686c-11.83-27.415-19.787-46.04,30.023-96.474c7.171,3.673,15.032,5.522,22.904,5.522
				c12.787,0,25.595-4.883,35.472-14.76c19.503-19.503,19.533-51.359-0.015-70.907c-9.763-9.763-22.604-14.639-35.442-14.639
				c-12.848,0-25.694,4.883-35.449,14.639c-16.36,16.36-18.997,40.72-8.478,59.732c-63.427,64.172-52.253,90.187-35.744,128.479
				c3.725,8.612,7.807,18.088,10.891,29.099l-56.201,55.903c-6.671-3.043-13.849-4.566-21.026-4.566
				c-12.923,0-25.836,4.942-35.741,14.847c-19.787,19.786-19.801,51.657,0,71.458c9.881,9.881,22.781,14.819,35.687,14.819
				c12.919,0,25.844-4.951,35.742-14.849c16.509-16.509,19.265-41.406,8.21-60.715l90.44-89.963
				c2.764-1.261,5.705-1.782,8.821-1.782c6.643,0,14.08,2.368,22.274,4.985c13.667,4.336,28.784,9.14,46.161,9.14
				c25.078,0,54.855-10.015,91.705-45.897l18.714,18.714l60.418-60.417l-60.403-60.403l-60.418,60.418l20.979,20.979
				c-29.641,28.701-53.182,36.647-72.843,36.647c-13.367,0-24.942-3.674-35.417-6.997c-3.933-1.311-7.867-2.503-11.607-3.591
				l172.909-172.104l30.112,29.695L478.818,31.899L478.818,31.899z"/>
		</g>
	</g>
</g>
</svg>
