<?xml version="1.0" encoding="utf-8"?>
<!-- Generator: Adobe Illustrator 17.1.0, SVG Export Plug-In . SVG Version: 6.00 Build 0)  -->
<!DOCTYPE svg PUBLIC "-//W3C//DTD SVG 1.1//EN" "http://www.w3.org/Graphics/SVG/1.1/DTD/svg11.dtd">
<svg version="1.1" id="Layer_1" xmlns="http://www.w3.org/2000/svg" xmlns:xlink="http://www.w3.org/1999/xlink" x="0px" y="0px"
	 viewBox="0 0 512 512" enable-background="new 0 0 512 512" xml:space="preserve">
<g id="Layer_1_1_">
</g>
<g id="Layer_2">
</g>
<rect x="130" y="199" width="256" height="136"/>
<path d="M94,211.3c0-26.7,21.4-48.3,47.7-48.3h228.7c26.3,0,47.7,21.6,47.7,48.3V409c38-39.9,60.8-93.8,60.8-153
	c0-123-99.8-222.8-222.8-222.8S33.2,133,33.2,256c0,59.3,22.8,113.1,60.8,153V211.3z"/>
<path d="M321.4,390.9c0,16,13.2,29.1,29.5,29.1s29.5-13,29.5-29.1c0-16-13.2-29.1-29.5-29.1C334.6,361.8,321.4,374.9,321.4,390.9z"
	/>
<path d="M255.2,478.8c0.3,0,0.5,0,0.8,0c63.7,0,121.2-26.8,161.8-69.6C405.6,421.1,341.8,478.4,255.2,478.8z"/>
<path d="M285.5,390.9c0-16.1-13.2-29.1-29.5-29.1c-16.3,0-29.5,13-29.5,29.1c0,16,13.3,29.1,29.5,29.1
	C272.3,420,285.5,407,285.5,390.9z"/>
<path d="M94.2,409.1c26.5,27.9,60.1,49,97.9,60.4C140.9,453.6,107.9,422,94.2,409.1z"/>
<path d="M131.6,386.5c0,16,13.2,29.1,29.5,29.1c16.3,0,29.6-13,29.6-29.1s-13.3-29.1-29.6-29.1C144.8,357.4,131.6,370.5,131.6,386.5
	z"/>
<path d="M415.3,96.7c-42.5-42.5-99.1-66-159.3-66s-116.7,23.4-159.3,66s-66,99.1-66,159.3s23.4,116.7,66,159.3
	c42.5,42.5,99.1,66,159.3,66s116.7-23.4,159.3-66c42.5-42.5,66-99.1,66-159.3S457.8,139.3,415.3,96.7z M411.8,411.8
	c-41.6,41.6-96.9,64.5-155.8,64.5s-114.2-22.9-155.8-64.5S35.7,314.8,35.7,256s22.9-114.2,64.5-155.8S197.2,35.7,256,35.7
	s114.2,22.9,155.8,64.5s64.5,96.9,64.5,155.8S453.4,370.2,411.8,411.8z"/>
</svg>
