<?xml version="1.0" encoding="utf-8"?>
<!-- Generator: Adobe Illustrator 17.0.2, SVG Export Plug-In . SVG Version: 6.00 Build 0)  -->
<!DOCTYPE svg PUBLIC "-//W3C//DTD SVG 1.1//EN" "http://www.w3.org/Graphics/SVG/1.1/DTD/svg11.dtd">
<svg version="1.1" xmlns="http://www.w3.org/2000/svg" xmlns:xlink="http://www.w3.org/1999/xlink" x="0px" y="0px" width="512px"
	 height="512px" viewBox="0 0 512 512" enable-background="new 0 0 512 512" xml:space="preserve">
<g id="Layer_1">
</g>
<g id="Layer_2">
</g>
<g id="Layer_3">
	<path fill="none" stroke="#231F20" stroke-width="5" stroke-linejoin="round" stroke-miterlimit="10" d="M161.091,415.558
		c-16.294,0-29.531-13.02-29.531-29.064c0-16.044,13.237-29.09,29.531-29.09c16.307,0,29.558,13.046,29.558,29.09
		C190.649,402.538,177.399,415.558,161.091,415.558z"/>
	<path fill="none" stroke="#231F20" stroke-width="5" stroke-linejoin="round" stroke-miterlimit="10" d="M255.986,417.772
		c-16.28,0-29.531-13.047-29.531-29.064c0-16.057,13.251-29.09,29.531-29.09c16.307,0,29.545,13.033,29.545,29.09
		C285.531,404.725,272.294,417.772,255.986,417.772z"/>
	<path fill="none" stroke="#231F20" stroke-width="5" stroke-linejoin="round" stroke-miterlimit="10" d="M350.882,419.999
		c-16.307,0-29.531-13.033-29.531-29.077c0-16.043,13.224-29.09,29.531-29.09c16.307,0,29.531,13.047,29.531,29.09
		C380.413,406.966,367.189,419.999,350.882,419.999z"/>
	
		<rect x="130.039" y="198.519" fill="none" stroke="#231F20" stroke-width="5" stroke-linejoin="round" stroke-miterlimit="10" width="256.406" height="136.834"/>
	<g>
		<defs>
			<circle id="SVGID_1_" cx="256" cy="255.996" r="222.773"/>
		</defs>
		<clipPath id="SVGID_2_">
			<use xlink:href="#SVGID_1_"  overflow="visible"/>
		</clipPath>
		<g clip-path="url(#SVGID_2_)">
			<path fill="#231F20" d="M370.327,167.945c23.476,0,42.575,19.46,42.575,43.379V413.87c-0.35,1.275-3.51,6.21-14.375,14.956
				c-10.031,8.075-23.305,16.704-37.376,24.297c-21.393,11.544-63.721,30.909-106.847,30.909c-43.08,0-84.443-19.395-105.264-30.956
				c-13.649-7.578-26.501-16.207-36.191-24.295c-10.459-8.731-13.443-13.636-13.75-14.886v-202.57
				c0-23.919,19.093-43.379,42.562-43.379H370.327 M370.327,162.945H141.66c-26.259,0-47.562,21.643-47.562,48.379v202.702
				c0,13.334,82.258,75.005,160.205,75.005s163.599-61.644,163.599-75.005V211.324C417.902,184.602,396.599,162.945,370.327,162.945
				L370.327,162.945z"/>
		</g>
		<use xlink:href="#SVGID_1_"  overflow="visible" fill="none" stroke="#000000" stroke-width="5" stroke-miterlimit="10"/>
	</g>
</g>
</svg>
