<?xml version="1.0" encoding="utf-8"?>
<!-- Generator: Adobe Illustrator 17.0.2, SVG Export Plug-In . SVG Version: 6.00 Build 0)  -->
<!DOCTYPE svg PUBLIC "-//W3C//DTD SVG 1.1//EN" "http://www.w3.org/Graphics/SVG/1.1/DTD/svg11.dtd">
<svg version="1.1" xmlns="http://www.w3.org/2000/svg" xmlns:xlink="http://www.w3.org/1999/xlink" x="0px" y="0px" width="512px"
	 height="512px" viewBox="0 0 512 512" enable-background="new 0 0 512 512" xml:space="preserve">
<g id="Layer_1">
</g>
<g id="Layer_2">
</g>
<g id="Layer_3">
	<g>
		<path fill="#010101" d="M40.663,110.729v290.94h-8.157v-290.94H40.663z"/>
		<path fill="#010101" d="M193.047,103.799h8.157L67.954,408.201h-7.726L193.047,103.799z"/>
		<path fill="#010101" d="M220.155,197.54c5.836-18.47,14.391-34.651,25.665-48.512c11.274-13.827,25.267-24.836,41.963-32.994
			c16.712-8.157,35.928-12.236,57.664-12.236s40.952,4.079,57.647,12.236c16.712,8.157,30.706,19.166,41.98,32.994
			c11.258,13.861,19.829,30.042,25.665,48.512s8.754,38.034,8.754,58.659c0,20.658-2.918,40.222-8.754,58.692
			c-5.836,18.47-14.408,34.618-25.665,48.479c-11.274,13.861-25.267,24.803-41.98,32.795c-16.696,8.025-35.912,12.037-57.647,12.037
			s-40.952-4.012-57.664-12.037c-16.696-7.991-30.689-18.934-41.963-32.795c-11.274-13.861-19.829-30.009-25.665-48.479
			c-5.853-18.47-8.771-38.034-8.771-58.692C211.384,235.574,214.302,216.01,220.155,197.54z M228.71,314.062
			c5.836,17.674,14.126,32.861,24.853,45.627c10.727,12.766,23.842,22.78,39.327,29.976c15.485,7.196,32.994,10.777,52.558,10.777
			s37.072-3.581,52.558-10.777c15.485-7.196,28.583-17.21,39.327-29.976c10.727-12.766,19-27.953,24.853-45.627
			c5.836-17.641,8.887-36.939,9.169-57.863c-0.282-20.924-3.332-40.189-9.169-57.863c-5.853-17.641-14.126-32.861-24.853-45.627
			c-10.744-12.766-23.842-22.747-39.327-29.943c-15.485-7.196-32.994-10.81-52.558-10.81s-37.072,3.614-52.558,10.81
			c-15.485,7.196-28.6,17.177-39.327,29.943c-10.727,12.766-19.017,27.986-24.853,45.627c-5.853,17.674-8.903,36.939-9.169,57.863
			C219.807,277.122,222.857,296.421,228.71,314.062z"/>
	</g>
</g>
</svg>
