<?xml version="1.0" encoding="utf-8"?>
<!-- Generator: Adobe Illustrator 17.0.2, SVG Export Plug-In . SVG Version: 6.00 Build 0)  -->
<!DOCTYPE svg PUBLIC "-//W3C//DTD SVG 1.1//EN" "http://www.w3.org/Graphics/SVG/1.1/DTD/svg11.dtd">
<svg version="1.1" xmlns="http://www.w3.org/2000/svg" xmlns:xlink="http://www.w3.org/1999/xlink" x="0px" y="0px" width="512px"
	 height="512px" viewBox="0 0 512 512" enable-background="new 0 0 512 512" xml:space="preserve">
<g id="Layer_1">
</g>
<g id="Layer_2">
</g>
<g id="Layer_3">
	<g>
		<path fill="#010101" d="M65.366,125.546v261.265H30.602V125.546H65.366z"/>
		<path fill="#010101" d="M223.796,119.323l-108.3,273.355H89.144l107.942-273.355H223.796z"/>
		<path fill="#010101" d="M238.982,204.783c5.241-16.467,13.117-31.058,23.598-43.743c10.496-12.685,23.539-22.809,39.157-30.373
			c15.603-7.534,33.782-11.345,54.522-11.345c20.725,0,38.904,3.811,54.522,11.345c15.603,7.563,28.661,17.688,39.142,30.373
			c10.496,12.685,18.358,27.276,23.598,43.743c5.256,16.467,7.876,33.589,7.876,51.395c0,17.807-2.62,34.958-7.876,51.425
			c-5.241,16.467-13.102,31.028-23.598,43.713c-10.482,12.685-23.539,22.75-39.142,30.194
			c-15.618,7.444-33.797,11.166-54.522,11.166c-20.74,0-38.919-3.722-54.522-11.166c-15.618-7.444-28.661-17.509-39.157-30.194
			c-10.482-12.685-18.358-27.246-23.598-43.713c-5.241-16.467-7.861-33.618-7.861-51.425
			C231.121,238.372,233.742,221.25,238.982,204.783z M271.008,295.157c3.409,12.804,8.769,24.328,16.095,34.571
			c7.325,10.243,16.705,18.492,28.169,24.715c11.464,6.194,25.132,9.32,40.988,9.32s29.509-3.127,40.973-9.32
			c11.464-6.223,20.859-14.472,28.184-24.715c7.31-10.243,12.67-21.767,16.095-34.571c3.409-12.804,5.122-25.787,5.122-38.978
			c0-13.162-1.712-26.144-5.122-38.949c-3.424-12.834-8.784-24.358-16.095-34.601c-7.325-10.243-16.72-18.462-28.184-24.685
			c-11.464-6.223-25.117-9.32-40.973-9.32s-29.524,3.097-40.988,9.32c-11.464,6.223-20.844,14.442-28.169,24.685
			c-7.325,10.243-12.685,21.767-16.095,34.601c-3.424,12.804-5.122,25.787-5.122,38.949
			C265.886,269.37,267.583,282.353,271.008,295.157z"/>
	</g>
</g>
</svg>
