<?xml version="1.0" encoding="utf-8"?>
<!-- Generator: Adobe Illustrator 17.0.2, SVG Export Plug-In . SVG Version: 6.00 Build 0)  -->
<!DOCTYPE svg PUBLIC "-//W3C//DTD SVG 1.1//EN" "http://www.w3.org/Graphics/SVG/1.1/DTD/svg11.dtd">
<svg version="1.1" xmlns="http://www.w3.org/2000/svg" xmlns:xlink="http://www.w3.org/1999/xlink" x="0px" y="0px" width="512px"
	 height="512px" viewBox="0 0 512 512" enable-background="new 0 0 512 512" xml:space="preserve">
<g id="Layer_1">
</g>
<g id="Layer_2">
</g>
<g id="Layer_3">
	<g>
		<path d="M470.66,126.021c-5.544-5.51-12.864-8.549-20.61-8.549l-128.925,0l-23.507-17.733c-3.147-2.377-8.725-4.241-12.702-4.241
			l-57.818,0c-3.998,0-9.576,1.864-12.689,4.241l-23.532,17.733l-128.92,0c-7.786,0-15.113,3.052-20.616,8.576
			c-5.537,5.537-8.583,12.857-8.583,20.61l0,240.658c0,7.779,3.052,15.099,8.576,20.596c5.51,5.537,12.837,8.59,20.623,8.59
			l388.086,0c7.806,0,15.126-3.052,20.616-8.59c5.537-5.537,8.583-12.857,8.583-20.61l0-240.658
			C479.242,138.879,476.197,131.559,470.66,126.021z M61.957,121.618l388.093,0.014c6.679,0,12.945,2.607,17.652,7.334
			c4.74,4.727,7.347,11.007,7.347,17.679l0,240.645c0,6.672-2.607,12.938-7.347,17.665c-4.713,4.727-10.987,7.334-17.652,7.334
			l-388.093,0c-6.679,0-12.959-2.607-17.686-7.347c-4.74-4.714-7.347-10.98-7.347-17.652l0-240.658
			c0-6.672,2.607-12.952,7.347-17.665C49.019,124.225,55.299,121.618,61.957,121.618z M227.098,99.658l57.818,0
			c3.073,0,7.739,1.553,10.19,3.39l19.126,14.424l-13.846,0l-12.445-8.076c-3.268-2.134-8.907-3.809-12.83-3.809l-38.221,0
			c-3.91,0-9.549,1.675-12.824,3.809l-12.484,8.076l-13.791,0l19.131-14.424C219.366,101.211,224.025,99.658,227.098,99.658z
			 M219.174,117.472l7.147-4.632c2.613-1.688,7.448-3.12,10.568-3.12l38.221,0c3.113,0,7.941,1.432,10.555,3.12l7.145,4.632
			L219.174,117.472z"/>
		<g>
			<g>
				<g>
					<path d="M443.81,396.54l-375.634,0c-7.887,0-14.303-6.415-14.303-14.303l0-230.502c0-7.887,6.415-14.316,14.303-14.316
						l375.634,0c7.874,0,14.282,6.429,14.282,14.316l0,230.502C458.092,390.125,451.684,396.54,443.81,396.54z M68.176,140.877
						c-5.983,0-10.845,4.876-10.845,10.859l0,230.502c0,5.983,4.862,10.845,10.845,10.845l375.634,0
						c5.97,0,10.825-4.862,10.825-10.845l0-230.502c0-5.983-4.855-10.859-10.825-10.859L68.176,140.877z"/>
				</g>
			</g>
			<g>
				<g>
					<path d="M443.81,396.878l-375.634,0c-8.083,0-14.66-6.577-14.66-14.667l0-230.488c0-8.09,6.577-14.667,14.66-14.667l375.634,0
						c8.09,0,14.674,6.577,14.674,14.667l0,230.502C458.484,390.301,451.9,396.878,443.81,396.878z M68.176,140.513
						c-6.179,0-11.203,5.024-11.203,11.21l0,230.488c0,6.186,5.024,11.21,11.203,11.21l375.634,0
						c6.186,0,11.216-5.024,11.216-11.196l0-230.502c0-6.186-5.031-11.21-11.216-11.21L68.176,140.513z"/>
				</g>
				<g>
					<path d="M443.81,396.189l-375.634,0c-7.685,0-13.938-6.253-13.938-13.951l0-230.502c0-7.698,6.253-13.951,13.938-13.951
						l375.634,0c7.691,0,13.951,6.253,13.951,13.951l0,230.502C457.762,389.936,451.502,396.189,443.81,396.189z M68.176,141.242
						c-5.78,0-10.48,4.713-10.48,10.494l0,230.502c0,5.78,4.7,10.494,10.48,10.494l375.634,0c5.787,0,10.494-4.713,10.494-10.494
						l0-230.502c0-5.78-4.707-10.494-10.494-10.494L68.176,141.242z"/>
				</g>
			</g>
		</g>
		<g>
			<g>
				<path d="M405.474,335.157l-298.989,0l0-136.367l298.989,0L405.474,335.157z M109.943,331.699l292.074,0l0-129.452l-292.074,0
					L109.943,331.699z"/>
			</g>
			<g>
				<path d="M405.846,335.522l-299.691,0l0-137.069l299.691,0L405.846,335.522z M109.612,332.064l292.776,0l0-130.154l-292.776,0
					L109.612,332.064z"/>
			</g>
			<g>
				<path d="M405.143,334.806l-298.287,0l0-135.678l298.287,0L405.143,334.806z M110.314,331.348l291.372,0l0-128.763l-291.372,0
					L110.314,331.348z"/>
			</g>
		</g>
	</g>
</g>
</svg>
