<?xml version="1.0" encoding="utf-8"?>
<!-- Generator: Adobe Illustrator 17.0.2, SVG Export Plug-In . SVG Version: 6.00 Build 0)  -->
<!DOCTYPE svg PUBLIC "-//W3C//DTD SVG 1.1//EN" "http://www.w3.org/Graphics/SVG/1.1/DTD/svg11.dtd">
<svg version="1.1" xmlns="http://www.w3.org/2000/svg" xmlns:xlink="http://www.w3.org/1999/xlink" x="0px" y="0px" width="512px"
	 height="512px" viewBox="0 0 512 512" enable-background="new 0 0 512 512" xml:space="preserve">
<g id="Layer_1">
</g>
<g id="Layer_2">
</g>
<g id="Layer_3">
	<g>
		<path d="M413.549,183.969H98.444c-3.809,0-7.024,2.298-7.024,5.02v156.263c0,2.722,3.214,5.034,7.024,5.034h315.105
			c3.809,0,7.031-2.312,7.031-5.034V188.989C420.58,186.267,417.358,183.969,413.549,183.969z"/>
		<path d="M413.549,183.969H98.444c-3.809,0-7.024,2.298-7.024,5.02v156.263c0,2.722,3.214,5.034,7.024,5.034h315.105
			c3.809,0,7.031-2.312,7.031-5.034V188.989C420.58,186.267,417.358,183.969,413.549,183.969z"/>
		<path d="M452.529,117.795H321.205l-24.347-18.391c-2.829-2.129-8.026-3.866-11.569-3.866h-58.576
			c-3.544,0-8.754,1.736-11.569,3.866l-24.347,18.391H59.471c-15.099,0-27.467,12.368-27.467,27.467v243.732
			c0,15.099,12.368,27.467,27.467,27.467h393.059c15.099,0,27.467-12.368,27.467-27.467V145.262
			C479.997,130.163,467.629,117.795,452.529,117.795z M455.426,383.853c0,5.088-4.131,9.233-9.212,9.233H65.773
			c-5.075,0-9.199-4.145-9.199-9.233V150.402c0-5.102,4.124-9.247,9.199-9.247h380.44c5.082,0,9.212,4.145,9.212,9.247V383.853z"/>
	</g>
</g>
</svg>
