<?xml version="1.0" encoding="utf-8"?>
<!-- Generator: Adobe Illustrator 16.0.4, SVG Export Plug-In . SVG Version: 6.00 Build 0)  -->
<!DOCTYPE svg PUBLIC "-//W3C//DTD SVG 1.1//EN" "http://www.w3.org/Graphics/SVG/1.1/DTD/svg11.dtd">
<svg version="1.1" id="Layer_1" xmlns="http://www.w3.org/2000/svg" xmlns:xlink="http://www.w3.org/1999/xlink" x="0px" y="0px"
	 width="512px" height="512px" viewBox="0 0 512 512" enable-background="new 0 0 512 512" xml:space="preserve">
<g id="Layer_1_1_">
</g>
<g id="Layer_2">
</g>
<g id="Layer_3">
	
		<rect x="162.759" y="243.981" transform="matrix(0.7071 -0.7071 0.7071 0.7071 -121.4718 199.6324)" stroke="#000000" stroke-width="5" stroke-miterlimit="10" width="34.959" height="4.925"/>
	<g>
		<path stroke="#000000" stroke-width="5" stroke-miterlimit="10" d="M130.994,164.91c-2.218,1.347-7.638,5.205-18.036,15.604
			c-9.915,9.915-13.25,14.688-14.344,16.601l47.809,47.809l32.292-32.293L130.994,164.91z"/>
		<path stroke="#000000" stroke-width="5" stroke-miterlimit="10" d="M110.129,177.685c9.572-9.572,15.156-13.832,17.968-15.672
			l-9.494-9.494c-2.218,1.347-7.639,5.205-18.037,15.604c-9.915,9.915-13.25,14.689-14.344,16.601l9.483,9.483
			C97.517,191.365,101.477,186.337,110.129,177.685z"/>
		<polygon stroke="#000000" stroke-width="5" stroke-miterlimit="10" points="181.542,215.459 149.25,247.752 149.25,247.752 
			158.813,257.314 191.105,225.022 		"/>
	</g>
	<path stroke="#000000" stroke-width="5" stroke-miterlimit="10" d="M392.605,473.617c1.961,1.961,4.574,3.041,7.356,3.041
		c2.793,0,5.418-1.086,7.391-3.06c4.065-4.064,4.069-10.678,0.01-14.737c-1.918-1.918-4.53-2.976-7.354-2.976
		c-0.621,0-1.246,0.054-1.855,0.157l-2.397,0.41l-2.212-11.094L192.977,244.793l-14.708,14.708l200.529,200.53l11.367,1.825
		l-0.468,2.52C389.076,467.72,390.163,471.175,392.605,473.617z"/>
	<path stroke="#000000" stroke-width="5" stroke-miterlimit="10" d="M425.305,442.244c1.649-4.418,1.112-23.938-1.55-30.366
		L314.823,148.756l-19.245,7.967c10.592,25.584,105.615,255.108,108.933,263.123C407.755,427.683,421.277,440.507,425.305,442.244z"
		/>
	
		<rect x="299.876" y="128.348" transform="matrix(-0.3826 -0.9239 0.9239 -0.3826 283.2741 480.9545)" stroke="#000000" stroke-width="5" stroke-miterlimit="10" width="4.924" height="34.957"/>
	<g>
		<path stroke="#000000" stroke-width="5" stroke-miterlimit="10" d="M288.072,51.673c-2.59,0.398-9.084,1.894-22.637,7.505
			c-12.955,5.363-17.864,8.497-19.606,9.845l25.862,62.47l42.195-17.469L288.072,51.673z"/>
		<path stroke="#000000" stroke-width="5" stroke-miterlimit="10" d="M263.904,55.482c12.5-5.175,19.294-6.971,22.6-7.595
			l-5.136-12.406c-2.591,0.398-9.083,1.895-22.638,7.506c-12.955,5.363-17.863,8.497-19.606,9.845l5.13,12.39
			C247.017,63.292,252.6,60.162,263.904,55.482z"/>
		<polygon stroke="#000000" stroke-width="5" stroke-miterlimit="10" points="315.416,117.719 315.416,117.719 273.221,135.188 
			278.395,147.684 320.589,130.215 		"/>
	</g>
</g>
</svg>
