<?xml version="1.0" encoding="utf-8"?>
<!-- Generator: Adobe Illustrator 17.0.2, SVG Export Plug-In . SVG Version: 6.00 Build 0)  -->
<!DOCTYPE svg PUBLIC "-//W3C//DTD SVG 1.1//EN" "http://www.w3.org/Graphics/SVG/1.1/DTD/svg11.dtd">
<svg version="1.1" xmlns="http://www.w3.org/2000/svg" xmlns:xlink="http://www.w3.org/1999/xlink" x="0px" y="0px" width="512px"
	 height="512px" viewBox="0 0 512 512" enable-background="new 0 0 512 512" xml:space="preserve">
<g id="Layer_1">
</g>
<g id="Layer_2">
</g>
<g id="Layer_3">
	<g>
		
			<rect x="160.256" y="241.483" transform="matrix(0.7071 -0.7071 0.7071 0.7071 -121.4733 199.628)" fill="none" stroke="#000000" stroke-width="5" stroke-miterlimit="10" width="39.959" height="9.925"/>
		<path fill="none" stroke="#000000" stroke-width="5" stroke-miterlimit="10" d="M194.641,225.023l-35.828,35.828l-63.162-63.162
			c0,0,0.221-3.625,15.538-18.943s20.29-16.885,20.29-16.885L194.641,225.023z"/>
		<path fill="none" stroke="#000000" stroke-width="5" stroke-miterlimit="10" d="M182.249,212.631l-35.828,35.828l-63.162-63.162
			c0,0,0.221-3.625,15.538-18.943s20.29-16.885,20.29-16.885L182.249,212.631z"/>
		<path fill="none" stroke="#000000" stroke-width="5" stroke-miterlimit="10" d="M192.977,241.258l-18.243,18.243l202.87,202.87
			l9.636,1.548c-0.751,4.043,0.471,8.339,3.599,11.466c5.043,5.043,13.239,5.025,18.282-0.018
			c5.043-5.043,5.053-13.229,0.009-18.273c-3.08-3.08-7.408-4.197-11.399-3.514l-1.884-9.452L192.977,241.258z"/>
		<g>
			<path fill="none" stroke="#000000" stroke-width="5" stroke-miterlimit="10" d="M426.066,410.921
				c3.003,7.255,3.95,32.431,0.352,33.921c-3.598,1.49-20.702-15.553-24.216-24.041c-3.514-8.487-109.889-265.432-109.889-265.432
				l23.864-9.88C316.176,145.489,423.062,403.667,426.066,410.921z"/>
			
				<rect x="282.367" y="140.882" transform="matrix(0.9239 -0.3825 0.3825 0.9239 -32.7941 126.7438)" fill="none" stroke="#000000" stroke-width="5" stroke-miterlimit="10" width="39.959" height="9.925"/>
			<path fill="none" stroke="#000000" stroke-width="5" stroke-miterlimit="10" d="M323.855,131.569L277.04,150.95l-34.168-82.531
				c0,0,1.592-3.265,21.606-11.551s25.208-7.831,25.208-7.831L323.855,131.569z"/>
			<path fill="none" stroke="#000000" stroke-width="5" stroke-miterlimit="10" d="M317.152,115.377l-46.815,19.381l-34.168-82.531
				c0,0,1.592-3.265,21.606-11.551c20.015-8.286,25.208-7.831,25.208-7.831L317.152,115.377z"/>
		</g>
	</g>
</g>
</svg>
