<?xml version="1.0" encoding="utf-8"?>
<!-- Generator: Adobe Illustrator 17.0.2, SVG Export Plug-In . SVG Version: 6.00 Build 0)  -->
<!DOCTYPE svg PUBLIC "-//W3C//DTD SVG 1.1//EN" "http://www.w3.org/Graphics/SVG/1.1/DTD/svg11.dtd">
<svg version="1.1" xmlns="http://www.w3.org/2000/svg" xmlns:xlink="http://www.w3.org/1999/xlink" x="0px" y="0px" width="512px"
	 height="512px" viewBox="0 0 512 512" enable-background="new 0 0 512 512" xml:space="preserve">
<g id="Layer_1">
</g>
<g id="Layer_2">
</g>
<g id="Layer_3">
	<g>
		<g>
			<path d="M256,21.068c31.718,0,62.484,6.211,91.445,18.46c27.975,11.832,53.1,28.773,74.677,50.35
				c21.577,21.577,38.518,46.702,50.35,74.677c12.249,28.96,18.46,59.727,18.46,91.445s-6.211,62.484-18.46,91.445
				c-11.832,27.975-28.773,53.1-50.35,74.678c-21.577,21.577-46.703,38.518-74.677,50.35c-28.96,12.249-59.727,18.46-91.445,18.46
				s-62.484-6.211-91.445-18.46c-27.975-11.832-53.1-28.773-74.678-50.35C68.3,400.545,51.36,375.42,39.528,347.445
				c-12.249-28.96-18.46-59.727-18.46-91.445s6.211-62.484,18.46-91.445c11.832-27.975,28.773-53.1,50.35-74.677
				c21.578-21.577,46.703-38.518,74.678-50.35C193.516,27.279,224.282,21.068,256,21.068 M256,16.068
				C123.489,16.068,16.068,123.489,16.068,256S123.489,495.932,256,495.932S495.932,388.511,495.932,256S388.511,16.068,256,16.068
				L256,16.068z"/>
		</g>
		<g>
			<path d="M173.476,91.022L390.919,256L173.476,420.978V91.022 M168.476,80.952v350.095L399.191,256L168.476,80.952L168.476,80.952
				z"/>
		</g>
	</g>
</g>
</svg>
